<mxfile host="Electron" agent="Mozilla/5.0 (Windows NT 10.0; Win64; x64) AppleWebKit/537.36 (KHTML, like Gecko) draw.io/28.0.6 Chrome/138.0.7204.100 Electron/37.2.3 Safari/537.36" version="28.0.6">
  <diagram name="Page-1" id="YSvXb4mtFogGqNT76oC1">
    <mxGraphModel dx="1620" dy="1796" grid="0" gridSize="10" guides="1" tooltips="1" connect="1" arrows="1" fold="1" page="0" pageScale="1" pageWidth="850" pageHeight="1100" math="0" shadow="0">
      <root>
        <mxCell id="0" />
        <mxCell id="1" parent="0" />
        <mxCell id="e5fGJ2bErtbxZkrx5kii-1" value="Order" style="shape=table;startSize=30;container=1;collapsible=1;childLayout=tableLayout;fixedRows=1;rowLines=0;fontStyle=1;align=center;resizeLast=1;html=1;" parent="1" vertex="1">
          <mxGeometry x="550" y="-177" width="180" height="298" as="geometry" />
        </mxCell>
        <mxCell id="e5fGJ2bErtbxZkrx5kii-2" value="" style="shape=tableRow;horizontal=0;startSize=0;swimlaneHead=0;swimlaneBody=0;fillColor=none;collapsible=0;dropTarget=0;points=[[0,0.5],[1,0.5]];portConstraint=eastwest;top=0;left=0;right=0;bottom=1;" parent="e5fGJ2bErtbxZkrx5kii-1" vertex="1">
          <mxGeometry y="30" width="180" height="30" as="geometry" />
        </mxCell>
        <mxCell id="e5fGJ2bErtbxZkrx5kii-3" value="PK" style="shape=partialRectangle;connectable=0;fillColor=none;top=0;left=0;bottom=0;right=0;fontStyle=1;overflow=hidden;whiteSpace=wrap;html=1;" parent="e5fGJ2bErtbxZkrx5kii-2" vertex="1">
          <mxGeometry width="29.36000976562491" height="30" as="geometry">
            <mxRectangle width="29.36000976562491" height="30" as="alternateBounds" />
          </mxGeometry>
        </mxCell>
        <mxCell id="e5fGJ2bErtbxZkrx5kii-4" value="ID" style="shape=partialRectangle;connectable=0;fillColor=none;top=0;left=0;bottom=0;right=0;align=left;spacingLeft=6;fontStyle=5;overflow=hidden;whiteSpace=wrap;html=1;" parent="e5fGJ2bErtbxZkrx5kii-2" vertex="1">
          <mxGeometry x="29.36000976562491" width="150.6399902343751" height="30" as="geometry">
            <mxRectangle width="150.6399902343751" height="30" as="alternateBounds" />
          </mxGeometry>
        </mxCell>
        <mxCell id="e5fGJ2bErtbxZkrx5kii-5" value="" style="shape=tableRow;horizontal=0;startSize=0;swimlaneHead=0;swimlaneBody=0;fillColor=none;collapsible=0;dropTarget=0;points=[[0,0.5],[1,0.5]];portConstraint=eastwest;top=0;left=0;right=0;bottom=0;" parent="e5fGJ2bErtbxZkrx5kii-1" vertex="1">
          <mxGeometry y="60" width="180" height="30" as="geometry" />
        </mxCell>
        <mxCell id="e5fGJ2bErtbxZkrx5kii-6" value="fk" style="shape=partialRectangle;connectable=0;fillColor=none;top=0;left=0;bottom=0;right=0;editable=1;overflow=hidden;whiteSpace=wrap;html=1;" parent="e5fGJ2bErtbxZkrx5kii-5" vertex="1">
          <mxGeometry width="29.36000976562491" height="30" as="geometry">
            <mxRectangle width="29.36000976562491" height="30" as="alternateBounds" />
          </mxGeometry>
        </mxCell>
        <mxCell id="e5fGJ2bErtbxZkrx5kii-7" value="UserId" style="shape=partialRectangle;connectable=0;fillColor=none;top=0;left=0;bottom=0;right=0;align=left;spacingLeft=6;overflow=hidden;whiteSpace=wrap;html=1;fontStyle=0;fontSize=13;" parent="e5fGJ2bErtbxZkrx5kii-5" vertex="1">
          <mxGeometry x="29.36000976562491" width="150.6399902343751" height="30" as="geometry">
            <mxRectangle width="150.6399902343751" height="30" as="alternateBounds" />
          </mxGeometry>
        </mxCell>
        <mxCell id="e5fGJ2bErtbxZkrx5kii-8" value="" style="shape=tableRow;horizontal=0;startSize=0;swimlaneHead=0;swimlaneBody=0;fillColor=none;collapsible=0;dropTarget=0;points=[[0,0.5],[1,0.5]];portConstraint=eastwest;top=0;left=0;right=0;bottom=0;" parent="e5fGJ2bErtbxZkrx5kii-1" vertex="1">
          <mxGeometry y="90" width="180" height="28" as="geometry" />
        </mxCell>
        <mxCell id="e5fGJ2bErtbxZkrx5kii-9" value="" style="shape=partialRectangle;connectable=0;fillColor=none;top=0;left=0;bottom=0;right=0;editable=1;overflow=hidden;whiteSpace=wrap;html=1;" parent="e5fGJ2bErtbxZkrx5kii-8" vertex="1">
          <mxGeometry width="29.36000976562491" height="28" as="geometry">
            <mxRectangle width="29.36000976562491" height="28" as="alternateBounds" />
          </mxGeometry>
        </mxCell>
        <mxCell id="e5fGJ2bErtbxZkrx5kii-10" value="Phone" style="shape=partialRectangle;connectable=0;fillColor=none;top=0;left=0;bottom=0;right=0;align=left;spacingLeft=6;overflow=hidden;whiteSpace=wrap;html=1;fontSize=13;" parent="e5fGJ2bErtbxZkrx5kii-8" vertex="1">
          <mxGeometry x="29.36000976562491" width="150.6399902343751" height="28" as="geometry">
            <mxRectangle width="150.6399902343751" height="28" as="alternateBounds" />
          </mxGeometry>
        </mxCell>
        <mxCell id="e5fGJ2bErtbxZkrx5kii-11" value="" style="shape=tableRow;horizontal=0;startSize=0;swimlaneHead=0;swimlaneBody=0;fillColor=none;collapsible=0;dropTarget=0;points=[[0,0.5],[1,0.5]];portConstraint=eastwest;top=0;left=0;right=0;bottom=0;" parent="e5fGJ2bErtbxZkrx5kii-1" vertex="1">
          <mxGeometry y="118" width="180" height="30" as="geometry" />
        </mxCell>
        <mxCell id="e5fGJ2bErtbxZkrx5kii-12" value="" style="shape=partialRectangle;connectable=0;fillColor=none;top=0;left=0;bottom=0;right=0;editable=1;overflow=hidden;whiteSpace=wrap;html=1;" parent="e5fGJ2bErtbxZkrx5kii-11" vertex="1">
          <mxGeometry width="29.36000976562491" height="30" as="geometry">
            <mxRectangle width="29.36000976562491" height="30" as="alternateBounds" />
          </mxGeometry>
        </mxCell>
        <mxCell id="e5fGJ2bErtbxZkrx5kii-13" value="Address" style="shape=partialRectangle;connectable=0;fillColor=none;top=0;left=0;bottom=0;right=0;align=left;spacingLeft=6;overflow=hidden;whiteSpace=wrap;html=1;fontSize=13;" parent="e5fGJ2bErtbxZkrx5kii-11" vertex="1">
          <mxGeometry x="29.36000976562491" width="150.6399902343751" height="30" as="geometry">
            <mxRectangle width="150.6399902343751" height="30" as="alternateBounds" />
          </mxGeometry>
        </mxCell>
        <mxCell id="e5fGJ2bErtbxZkrx5kii-14" value="" style="shape=tableRow;horizontal=0;startSize=0;swimlaneHead=0;swimlaneBody=0;fillColor=none;collapsible=0;dropTarget=0;points=[[0,0.5],[1,0.5]];portConstraint=eastwest;top=0;left=0;right=0;bottom=0;" parent="e5fGJ2bErtbxZkrx5kii-1" vertex="1">
          <mxGeometry y="148" width="180" height="30" as="geometry" />
        </mxCell>
        <mxCell id="e5fGJ2bErtbxZkrx5kii-15" value="" style="shape=partialRectangle;connectable=0;fillColor=none;top=0;left=0;bottom=0;right=0;editable=1;overflow=hidden;whiteSpace=wrap;html=1;" parent="e5fGJ2bErtbxZkrx5kii-14" vertex="1">
          <mxGeometry width="29.36000976562491" height="30" as="geometry">
            <mxRectangle width="29.36000976562491" height="30" as="alternateBounds" />
          </mxGeometry>
        </mxCell>
        <mxCell id="e5fGJ2bErtbxZkrx5kii-16" value="GrandTotal" style="shape=partialRectangle;connectable=0;fillColor=none;top=0;left=0;bottom=0;right=0;align=left;spacingLeft=6;overflow=hidden;whiteSpace=wrap;html=1;fontSize=13;" parent="e5fGJ2bErtbxZkrx5kii-14" vertex="1">
          <mxGeometry x="29.36000976562491" width="150.6399902343751" height="30" as="geometry">
            <mxRectangle width="150.6399902343751" height="30" as="alternateBounds" />
          </mxGeometry>
        </mxCell>
        <mxCell id="e5fGJ2bErtbxZkrx5kii-313" value="" style="shape=tableRow;horizontal=0;startSize=0;swimlaneHead=0;swimlaneBody=0;fillColor=none;collapsible=0;dropTarget=0;points=[[0,0.5],[1,0.5]];portConstraint=eastwest;top=0;left=0;right=0;bottom=0;" parent="e5fGJ2bErtbxZkrx5kii-1" vertex="1">
          <mxGeometry y="178" width="180" height="30" as="geometry" />
        </mxCell>
        <mxCell id="e5fGJ2bErtbxZkrx5kii-314" value="" style="shape=partialRectangle;connectable=0;fillColor=none;top=0;left=0;bottom=0;right=0;editable=1;overflow=hidden;whiteSpace=wrap;html=1;" parent="e5fGJ2bErtbxZkrx5kii-313" vertex="1">
          <mxGeometry width="29.36000976562491" height="30" as="geometry">
            <mxRectangle width="29.36000976562491" height="30" as="alternateBounds" />
          </mxGeometry>
        </mxCell>
        <mxCell id="e5fGJ2bErtbxZkrx5kii-315" value="OrderStatus" style="shape=partialRectangle;connectable=0;fillColor=none;top=0;left=0;bottom=0;right=0;align=left;spacingLeft=6;overflow=hidden;whiteSpace=wrap;html=1;fontSize=13;" parent="e5fGJ2bErtbxZkrx5kii-313" vertex="1">
          <mxGeometry x="29.36000976562491" width="150.6399902343751" height="30" as="geometry">
            <mxRectangle width="150.6399902343751" height="30" as="alternateBounds" />
          </mxGeometry>
        </mxCell>
        <mxCell id="e5fGJ2bErtbxZkrx5kii-316" value="" style="shape=tableRow;horizontal=0;startSize=0;swimlaneHead=0;swimlaneBody=0;fillColor=none;collapsible=0;dropTarget=0;points=[[0,0.5],[1,0.5]];portConstraint=eastwest;top=0;left=0;right=0;bottom=0;" parent="e5fGJ2bErtbxZkrx5kii-1" vertex="1">
          <mxGeometry y="208" width="180" height="30" as="geometry" />
        </mxCell>
        <mxCell id="e5fGJ2bErtbxZkrx5kii-317" value="" style="shape=partialRectangle;connectable=0;fillColor=none;top=0;left=0;bottom=0;right=0;editable=1;overflow=hidden;whiteSpace=wrap;html=1;" parent="e5fGJ2bErtbxZkrx5kii-316" vertex="1">
          <mxGeometry width="29.36000976562491" height="30" as="geometry">
            <mxRectangle width="29.36000976562491" height="30" as="alternateBounds" />
          </mxGeometry>
        </mxCell>
        <mxCell id="e5fGJ2bErtbxZkrx5kii-318" value="PaymentMethod" style="shape=partialRectangle;connectable=0;fillColor=none;top=0;left=0;bottom=0;right=0;align=left;spacingLeft=6;overflow=hidden;whiteSpace=wrap;html=1;fontSize=13;" parent="e5fGJ2bErtbxZkrx5kii-316" vertex="1">
          <mxGeometry x="29.36000976562491" width="150.6399902343751" height="30" as="geometry">
            <mxRectangle width="150.6399902343751" height="30" as="alternateBounds" />
          </mxGeometry>
        </mxCell>
        <mxCell id="e5fGJ2bErtbxZkrx5kii-319" value="" style="shape=tableRow;horizontal=0;startSize=0;swimlaneHead=0;swimlaneBody=0;fillColor=none;collapsible=0;dropTarget=0;points=[[0,0.5],[1,0.5]];portConstraint=eastwest;top=0;left=0;right=0;bottom=0;" parent="e5fGJ2bErtbxZkrx5kii-1" vertex="1">
          <mxGeometry y="238" width="180" height="30" as="geometry" />
        </mxCell>
        <mxCell id="e5fGJ2bErtbxZkrx5kii-320" value="" style="shape=partialRectangle;connectable=0;fillColor=none;top=0;left=0;bottom=0;right=0;editable=1;overflow=hidden;whiteSpace=wrap;html=1;" parent="e5fGJ2bErtbxZkrx5kii-319" vertex="1">
          <mxGeometry width="29.36000976562491" height="30" as="geometry">
            <mxRectangle width="29.36000976562491" height="30" as="alternateBounds" />
          </mxGeometry>
        </mxCell>
        <mxCell id="e5fGJ2bErtbxZkrx5kii-321" value="CreatedAt" style="shape=partialRectangle;connectable=0;fillColor=none;top=0;left=0;bottom=0;right=0;align=left;spacingLeft=6;overflow=hidden;whiteSpace=wrap;html=1;fontSize=13;" parent="e5fGJ2bErtbxZkrx5kii-319" vertex="1">
          <mxGeometry x="29.36000976562491" width="150.6399902343751" height="30" as="geometry">
            <mxRectangle width="150.6399902343751" height="30" as="alternateBounds" />
          </mxGeometry>
        </mxCell>
        <mxCell id="k0vDTodkq2BZZLlNwc0m-19" value="" style="shape=tableRow;horizontal=0;startSize=0;swimlaneHead=0;swimlaneBody=0;fillColor=none;collapsible=0;dropTarget=0;points=[[0,0.5],[1,0.5]];portConstraint=eastwest;top=0;left=0;right=0;bottom=0;" parent="e5fGJ2bErtbxZkrx5kii-1" vertex="1">
          <mxGeometry y="268" width="180" height="30" as="geometry" />
        </mxCell>
        <mxCell id="k0vDTodkq2BZZLlNwc0m-20" value="" style="shape=partialRectangle;connectable=0;fillColor=none;top=0;left=0;bottom=0;right=0;editable=1;overflow=hidden;whiteSpace=wrap;html=1;" parent="k0vDTodkq2BZZLlNwc0m-19" vertex="1">
          <mxGeometry width="29.36000976562491" height="30" as="geometry">
            <mxRectangle width="29.36000976562491" height="30" as="alternateBounds" />
          </mxGeometry>
        </mxCell>
        <mxCell id="k0vDTodkq2BZZLlNwc0m-21" value="Notes" style="shape=partialRectangle;connectable=0;fillColor=none;top=0;left=0;bottom=0;right=0;align=left;spacingLeft=6;overflow=hidden;whiteSpace=wrap;html=1;fontSize=13;" parent="k0vDTodkq2BZZLlNwc0m-19" vertex="1">
          <mxGeometry x="29.36000976562491" width="150.6399902343751" height="30" as="geometry">
            <mxRectangle width="150.6399902343751" height="30" as="alternateBounds" />
          </mxGeometry>
        </mxCell>
        <mxCell id="e5fGJ2bErtbxZkrx5kii-17" value="OrderDetails" style="shape=table;startSize=30;container=1;collapsible=1;childLayout=tableLayout;fixedRows=1;rowLines=0;fontStyle=1;align=center;resizeLast=1;html=1;" parent="1" vertex="1">
          <mxGeometry x="301" y="-429" width="180" height="238" as="geometry" />
        </mxCell>
        <mxCell id="e5fGJ2bErtbxZkrx5kii-18" value="" style="shape=tableRow;horizontal=0;startSize=0;swimlaneHead=0;swimlaneBody=0;fillColor=none;collapsible=0;dropTarget=0;points=[[0,0.5],[1,0.5]];portConstraint=eastwest;top=0;left=0;right=0;bottom=1;" parent="e5fGJ2bErtbxZkrx5kii-17" vertex="1">
          <mxGeometry y="30" width="180" height="30" as="geometry" />
        </mxCell>
        <mxCell id="e5fGJ2bErtbxZkrx5kii-19" value="PK" style="shape=partialRectangle;connectable=0;fillColor=none;top=0;left=0;bottom=0;right=0;fontStyle=1;overflow=hidden;whiteSpace=wrap;html=1;" parent="e5fGJ2bErtbxZkrx5kii-18" vertex="1">
          <mxGeometry width="30.160009765624864" height="30" as="geometry">
            <mxRectangle width="30.160009765624864" height="30" as="alternateBounds" />
          </mxGeometry>
        </mxCell>
        <mxCell id="e5fGJ2bErtbxZkrx5kii-20" value="ID" style="shape=partialRectangle;connectable=0;fillColor=none;top=0;left=0;bottom=0;right=0;align=left;spacingLeft=6;fontStyle=5;overflow=hidden;whiteSpace=wrap;html=1;" parent="e5fGJ2bErtbxZkrx5kii-18" vertex="1">
          <mxGeometry x="30.160009765624864" width="149.83999023437514" height="30" as="geometry">
            <mxRectangle width="149.83999023437514" height="30" as="alternateBounds" />
          </mxGeometry>
        </mxCell>
        <mxCell id="e5fGJ2bErtbxZkrx5kii-21" value="" style="shape=tableRow;horizontal=0;startSize=0;swimlaneHead=0;swimlaneBody=0;fillColor=none;collapsible=0;dropTarget=0;points=[[0,0.5],[1,0.5]];portConstraint=eastwest;top=0;left=0;right=0;bottom=0;" parent="e5fGJ2bErtbxZkrx5kii-17" vertex="1">
          <mxGeometry y="60" width="180" height="30" as="geometry" />
        </mxCell>
        <mxCell id="e5fGJ2bErtbxZkrx5kii-22" value="fk" style="shape=partialRectangle;connectable=0;fillColor=none;top=0;left=0;bottom=0;right=0;editable=1;overflow=hidden;whiteSpace=wrap;html=1;" parent="e5fGJ2bErtbxZkrx5kii-21" vertex="1">
          <mxGeometry width="30.160009765624864" height="30" as="geometry">
            <mxRectangle width="30.160009765624864" height="30" as="alternateBounds" />
          </mxGeometry>
        </mxCell>
        <mxCell id="e5fGJ2bErtbxZkrx5kii-23" value="OrderId" style="shape=partialRectangle;connectable=0;fillColor=none;top=0;left=0;bottom=0;right=0;align=left;spacingLeft=6;overflow=hidden;whiteSpace=wrap;html=1;fontStyle=0;fontSize=13;" parent="e5fGJ2bErtbxZkrx5kii-21" vertex="1">
          <mxGeometry x="30.160009765624864" width="149.83999023437514" height="30" as="geometry">
            <mxRectangle width="149.83999023437514" height="30" as="alternateBounds" />
          </mxGeometry>
        </mxCell>
        <mxCell id="e5fGJ2bErtbxZkrx5kii-24" value="" style="shape=tableRow;horizontal=0;startSize=0;swimlaneHead=0;swimlaneBody=0;fillColor=none;collapsible=0;dropTarget=0;points=[[0,0.5],[1,0.5]];portConstraint=eastwest;top=0;left=0;right=0;bottom=0;" parent="e5fGJ2bErtbxZkrx5kii-17" vertex="1">
          <mxGeometry y="90" width="180" height="28" as="geometry" />
        </mxCell>
        <mxCell id="e5fGJ2bErtbxZkrx5kii-25" value="fk" style="shape=partialRectangle;connectable=0;fillColor=none;top=0;left=0;bottom=0;right=0;editable=1;overflow=hidden;whiteSpace=wrap;html=1;" parent="e5fGJ2bErtbxZkrx5kii-24" vertex="1">
          <mxGeometry width="30.160009765624864" height="28" as="geometry">
            <mxRectangle width="30.160009765624864" height="28" as="alternateBounds" />
          </mxGeometry>
        </mxCell>
        <mxCell id="e5fGJ2bErtbxZkrx5kii-26" value="ItemId" style="shape=partialRectangle;connectable=0;fillColor=none;top=0;left=0;bottom=0;right=0;align=left;spacingLeft=6;overflow=hidden;whiteSpace=wrap;html=1;fontSize=13;" parent="e5fGJ2bErtbxZkrx5kii-24" vertex="1">
          <mxGeometry x="30.160009765624864" width="149.83999023437514" height="28" as="geometry">
            <mxRectangle width="149.83999023437514" height="28" as="alternateBounds" />
          </mxGeometry>
        </mxCell>
        <mxCell id="e5fGJ2bErtbxZkrx5kii-27" value="" style="shape=tableRow;horizontal=0;startSize=0;swimlaneHead=0;swimlaneBody=0;fillColor=none;collapsible=0;dropTarget=0;points=[[0,0.5],[1,0.5]];portConstraint=eastwest;top=0;left=0;right=0;bottom=0;" parent="e5fGJ2bErtbxZkrx5kii-17" vertex="1">
          <mxGeometry y="118" width="180" height="30" as="geometry" />
        </mxCell>
        <mxCell id="e5fGJ2bErtbxZkrx5kii-28" value="" style="shape=partialRectangle;connectable=0;fillColor=none;top=0;left=0;bottom=0;right=0;editable=1;overflow=hidden;whiteSpace=wrap;html=1;" parent="e5fGJ2bErtbxZkrx5kii-27" vertex="1">
          <mxGeometry width="30.160009765624864" height="30" as="geometry">
            <mxRectangle width="30.160009765624864" height="30" as="alternateBounds" />
          </mxGeometry>
        </mxCell>
        <mxCell id="e5fGJ2bErtbxZkrx5kii-29" value="Qty" style="shape=partialRectangle;connectable=0;fillColor=none;top=0;left=0;bottom=0;right=0;align=left;spacingLeft=6;overflow=hidden;whiteSpace=wrap;html=1;fontSize=13;" parent="e5fGJ2bErtbxZkrx5kii-27" vertex="1">
          <mxGeometry x="30.160009765624864" width="149.83999023437514" height="30" as="geometry">
            <mxRectangle width="149.83999023437514" height="30" as="alternateBounds" />
          </mxGeometry>
        </mxCell>
        <mxCell id="e5fGJ2bErtbxZkrx5kii-30" value="" style="shape=tableRow;horizontal=0;startSize=0;swimlaneHead=0;swimlaneBody=0;fillColor=none;collapsible=0;dropTarget=0;points=[[0,0.5],[1,0.5]];portConstraint=eastwest;top=0;left=0;right=0;bottom=0;" parent="e5fGJ2bErtbxZkrx5kii-17" vertex="1">
          <mxGeometry y="148" width="180" height="30" as="geometry" />
        </mxCell>
        <mxCell id="e5fGJ2bErtbxZkrx5kii-31" value="" style="shape=partialRectangle;connectable=0;fillColor=none;top=0;left=0;bottom=0;right=0;editable=1;overflow=hidden;whiteSpace=wrap;html=1;" parent="e5fGJ2bErtbxZkrx5kii-30" vertex="1">
          <mxGeometry width="30.160009765624864" height="30" as="geometry">
            <mxRectangle width="30.160009765624864" height="30" as="alternateBounds" />
          </mxGeometry>
        </mxCell>
        <mxCell id="e5fGJ2bErtbxZkrx5kii-32" value="SalesPrice" style="shape=partialRectangle;connectable=0;fillColor=none;top=0;left=0;bottom=0;right=0;align=left;spacingLeft=6;overflow=hidden;whiteSpace=wrap;html=1;fontSize=13;" parent="e5fGJ2bErtbxZkrx5kii-30" vertex="1">
          <mxGeometry x="30.160009765624864" width="149.83999023437514" height="30" as="geometry">
            <mxRectangle width="149.83999023437514" height="30" as="alternateBounds" />
          </mxGeometry>
        </mxCell>
        <mxCell id="e5fGJ2bErtbxZkrx5kii-33" value="" style="shape=tableRow;horizontal=0;startSize=0;swimlaneHead=0;swimlaneBody=0;fillColor=none;collapsible=0;dropTarget=0;points=[[0,0.5],[1,0.5]];portConstraint=eastwest;top=0;left=0;right=0;bottom=0;" parent="e5fGJ2bErtbxZkrx5kii-17" vertex="1">
          <mxGeometry y="178" width="180" height="30" as="geometry" />
        </mxCell>
        <mxCell id="e5fGJ2bErtbxZkrx5kii-34" value="" style="shape=partialRectangle;connectable=0;fillColor=none;top=0;left=0;bottom=0;right=0;editable=1;overflow=hidden;whiteSpace=wrap;html=1;" parent="e5fGJ2bErtbxZkrx5kii-33" vertex="1">
          <mxGeometry width="30.160009765624864" height="30" as="geometry">
            <mxRectangle width="30.160009765624864" height="30" as="alternateBounds" />
          </mxGeometry>
        </mxCell>
        <mxCell id="e5fGJ2bErtbxZkrx5kii-35" value="Total" style="shape=partialRectangle;connectable=0;fillColor=none;top=0;left=0;bottom=0;right=0;align=left;spacingLeft=6;overflow=hidden;whiteSpace=wrap;html=1;fontSize=13;" parent="e5fGJ2bErtbxZkrx5kii-33" vertex="1">
          <mxGeometry x="30.160009765624864" width="149.83999023437514" height="30" as="geometry">
            <mxRectangle width="149.83999023437514" height="30" as="alternateBounds" />
          </mxGeometry>
        </mxCell>
        <mxCell id="e5fGJ2bErtbxZkrx5kii-304" value="" style="shape=tableRow;horizontal=0;startSize=0;swimlaneHead=0;swimlaneBody=0;fillColor=none;collapsible=0;dropTarget=0;points=[[0,0.5],[1,0.5]];portConstraint=eastwest;top=0;left=0;right=0;bottom=0;" parent="e5fGJ2bErtbxZkrx5kii-17" vertex="1">
          <mxGeometry y="208" width="180" height="30" as="geometry" />
        </mxCell>
        <mxCell id="e5fGJ2bErtbxZkrx5kii-305" value="" style="shape=partialRectangle;connectable=0;fillColor=none;top=0;left=0;bottom=0;right=0;editable=1;overflow=hidden;whiteSpace=wrap;html=1;" parent="e5fGJ2bErtbxZkrx5kii-304" vertex="1">
          <mxGeometry width="30.160009765624864" height="30" as="geometry">
            <mxRectangle width="30.160009765624864" height="30" as="alternateBounds" />
          </mxGeometry>
        </mxCell>
        <mxCell id="e5fGJ2bErtbxZkrx5kii-306" value="Notes" style="shape=partialRectangle;connectable=0;fillColor=none;top=0;left=0;bottom=0;right=0;align=left;spacingLeft=6;overflow=hidden;whiteSpace=wrap;html=1;fontSize=13;" parent="e5fGJ2bErtbxZkrx5kii-304" vertex="1">
          <mxGeometry x="30.160009765624864" width="149.83999023437514" height="30" as="geometry">
            <mxRectangle width="149.83999023437514" height="30" as="alternateBounds" />
          </mxGeometry>
        </mxCell>
        <mxCell id="e5fGJ2bErtbxZkrx5kii-36" value="User" style="shape=table;startSize=30;container=1;collapsible=1;childLayout=tableLayout;fixedRows=1;rowLines=0;fontStyle=1;align=center;resizeLast=1;html=1;" parent="1" vertex="1">
          <mxGeometry x="531" y="263" width="180" height="268" as="geometry">
            <mxRectangle x="311" y="163" width="60" height="30" as="alternateBounds" />
          </mxGeometry>
        </mxCell>
        <mxCell id="e5fGJ2bErtbxZkrx5kii-37" value="" style="shape=tableRow;horizontal=0;startSize=0;swimlaneHead=0;swimlaneBody=0;fillColor=none;collapsible=0;dropTarget=0;points=[[0,0.5],[1,0.5]];portConstraint=eastwest;top=0;left=0;right=0;bottom=1;" parent="e5fGJ2bErtbxZkrx5kii-36" vertex="1">
          <mxGeometry y="30" width="180" height="30" as="geometry" />
        </mxCell>
        <mxCell id="e5fGJ2bErtbxZkrx5kii-38" value="PK" style="shape=partialRectangle;connectable=0;fillColor=none;top=0;left=0;bottom=0;right=0;fontStyle=1;overflow=hidden;whiteSpace=wrap;html=1;" parent="e5fGJ2bErtbxZkrx5kii-37" vertex="1">
          <mxGeometry width="30" height="30" as="geometry">
            <mxRectangle width="30" height="30" as="alternateBounds" />
          </mxGeometry>
        </mxCell>
        <mxCell id="e5fGJ2bErtbxZkrx5kii-39" value="ID" style="shape=partialRectangle;connectable=0;fillColor=none;top=0;left=0;bottom=0;right=0;align=left;spacingLeft=6;fontStyle=5;overflow=hidden;whiteSpace=wrap;html=1;" parent="e5fGJ2bErtbxZkrx5kii-37" vertex="1">
          <mxGeometry x="30" width="150" height="30" as="geometry">
            <mxRectangle width="150" height="30" as="alternateBounds" />
          </mxGeometry>
        </mxCell>
        <mxCell id="e5fGJ2bErtbxZkrx5kii-40" value="" style="shape=tableRow;horizontal=0;startSize=0;swimlaneHead=0;swimlaneBody=0;fillColor=none;collapsible=0;dropTarget=0;points=[[0,0.5],[1,0.5]];portConstraint=eastwest;top=0;left=0;right=0;bottom=0;" parent="e5fGJ2bErtbxZkrx5kii-36" vertex="1">
          <mxGeometry y="60" width="180" height="30" as="geometry" />
        </mxCell>
        <mxCell id="e5fGJ2bErtbxZkrx5kii-41" value="" style="shape=partialRectangle;connectable=0;fillColor=none;top=0;left=0;bottom=0;right=0;editable=1;overflow=hidden;whiteSpace=wrap;html=1;" parent="e5fGJ2bErtbxZkrx5kii-40" vertex="1">
          <mxGeometry width="30" height="30" as="geometry">
            <mxRectangle width="30" height="30" as="alternateBounds" />
          </mxGeometry>
        </mxCell>
        <mxCell id="e5fGJ2bErtbxZkrx5kii-42" value="Name" style="shape=partialRectangle;connectable=0;fillColor=none;top=0;left=0;bottom=0;right=0;align=left;spacingLeft=6;overflow=hidden;whiteSpace=wrap;html=1;fontStyle=0;fontSize=13;" parent="e5fGJ2bErtbxZkrx5kii-40" vertex="1">
          <mxGeometry x="30" width="150" height="30" as="geometry">
            <mxRectangle width="150" height="30" as="alternateBounds" />
          </mxGeometry>
        </mxCell>
        <mxCell id="e5fGJ2bErtbxZkrx5kii-43" value="" style="shape=tableRow;horizontal=0;startSize=0;swimlaneHead=0;swimlaneBody=0;fillColor=none;collapsible=0;dropTarget=0;points=[[0,0.5],[1,0.5]];portConstraint=eastwest;top=0;left=0;right=0;bottom=0;" parent="e5fGJ2bErtbxZkrx5kii-36" vertex="1">
          <mxGeometry y="90" width="180" height="28" as="geometry" />
        </mxCell>
        <mxCell id="e5fGJ2bErtbxZkrx5kii-44" value="" style="shape=partialRectangle;connectable=0;fillColor=none;top=0;left=0;bottom=0;right=0;editable=1;overflow=hidden;whiteSpace=wrap;html=1;" parent="e5fGJ2bErtbxZkrx5kii-43" vertex="1">
          <mxGeometry width="30" height="28" as="geometry">
            <mxRectangle width="30" height="28" as="alternateBounds" />
          </mxGeometry>
        </mxCell>
        <mxCell id="e5fGJ2bErtbxZkrx5kii-45" value="UserName" style="shape=partialRectangle;connectable=0;fillColor=none;top=0;left=0;bottom=0;right=0;align=left;spacingLeft=6;overflow=hidden;whiteSpace=wrap;html=1;fontSize=13;" parent="e5fGJ2bErtbxZkrx5kii-43" vertex="1">
          <mxGeometry x="30" width="150" height="28" as="geometry">
            <mxRectangle width="150" height="28" as="alternateBounds" />
          </mxGeometry>
        </mxCell>
        <mxCell id="e5fGJ2bErtbxZkrx5kii-46" value="" style="shape=tableRow;horizontal=0;startSize=0;swimlaneHead=0;swimlaneBody=0;fillColor=none;collapsible=0;dropTarget=0;points=[[0,0.5],[1,0.5]];portConstraint=eastwest;top=0;left=0;right=0;bottom=0;" parent="e5fGJ2bErtbxZkrx5kii-36" vertex="1">
          <mxGeometry y="118" width="180" height="30" as="geometry" />
        </mxCell>
        <mxCell id="e5fGJ2bErtbxZkrx5kii-47" value="" style="shape=partialRectangle;connectable=0;fillColor=none;top=0;left=0;bottom=0;right=0;editable=1;overflow=hidden;whiteSpace=wrap;html=1;" parent="e5fGJ2bErtbxZkrx5kii-46" vertex="1">
          <mxGeometry width="30" height="30" as="geometry">
            <mxRectangle width="30" height="30" as="alternateBounds" />
          </mxGeometry>
        </mxCell>
        <mxCell id="e5fGJ2bErtbxZkrx5kii-48" value="Email" style="shape=partialRectangle;connectable=0;fillColor=none;top=0;left=0;bottom=0;right=0;align=left;spacingLeft=6;overflow=hidden;whiteSpace=wrap;html=1;fontSize=13;" parent="e5fGJ2bErtbxZkrx5kii-46" vertex="1">
          <mxGeometry x="30" width="150" height="30" as="geometry">
            <mxRectangle width="150" height="30" as="alternateBounds" />
          </mxGeometry>
        </mxCell>
        <mxCell id="e5fGJ2bErtbxZkrx5kii-49" value="" style="shape=tableRow;horizontal=0;startSize=0;swimlaneHead=0;swimlaneBody=0;fillColor=none;collapsible=0;dropTarget=0;points=[[0,0.5],[1,0.5]];portConstraint=eastwest;top=0;left=0;right=0;bottom=0;" parent="e5fGJ2bErtbxZkrx5kii-36" vertex="1">
          <mxGeometry y="148" width="180" height="30" as="geometry" />
        </mxCell>
        <mxCell id="e5fGJ2bErtbxZkrx5kii-50" value="" style="shape=partialRectangle;connectable=0;fillColor=none;top=0;left=0;bottom=0;right=0;editable=1;overflow=hidden;whiteSpace=wrap;html=1;" parent="e5fGJ2bErtbxZkrx5kii-49" vertex="1">
          <mxGeometry width="30" height="30" as="geometry">
            <mxRectangle width="30" height="30" as="alternateBounds" />
          </mxGeometry>
        </mxCell>
        <mxCell id="e5fGJ2bErtbxZkrx5kii-51" value="Password" style="shape=partialRectangle;connectable=0;fillColor=none;top=0;left=0;bottom=0;right=0;align=left;spacingLeft=6;overflow=hidden;whiteSpace=wrap;html=1;fontSize=13;" parent="e5fGJ2bErtbxZkrx5kii-49" vertex="1">
          <mxGeometry x="30" width="150" height="30" as="geometry">
            <mxRectangle width="150" height="30" as="alternateBounds" />
          </mxGeometry>
        </mxCell>
        <mxCell id="e5fGJ2bErtbxZkrx5kii-52" value="" style="shape=tableRow;horizontal=0;startSize=0;swimlaneHead=0;swimlaneBody=0;fillColor=none;collapsible=0;dropTarget=0;points=[[0,0.5],[1,0.5]];portConstraint=eastwest;top=0;left=0;right=0;bottom=0;" parent="e5fGJ2bErtbxZkrx5kii-36" vertex="1">
          <mxGeometry y="178" width="180" height="30" as="geometry" />
        </mxCell>
        <mxCell id="e5fGJ2bErtbxZkrx5kii-53" value="" style="shape=partialRectangle;connectable=0;fillColor=none;top=0;left=0;bottom=0;right=0;editable=1;overflow=hidden;whiteSpace=wrap;html=1;" parent="e5fGJ2bErtbxZkrx5kii-52" vertex="1">
          <mxGeometry width="30" height="30" as="geometry">
            <mxRectangle width="30" height="30" as="alternateBounds" />
          </mxGeometry>
        </mxCell>
        <mxCell id="e5fGJ2bErtbxZkrx5kii-54" value="Age" style="shape=partialRectangle;connectable=0;fillColor=none;top=0;left=0;bottom=0;right=0;align=left;spacingLeft=6;overflow=hidden;whiteSpace=wrap;html=1;fontSize=13;" parent="e5fGJ2bErtbxZkrx5kii-52" vertex="1">
          <mxGeometry x="30" width="150" height="30" as="geometry">
            <mxRectangle width="150" height="30" as="alternateBounds" />
          </mxGeometry>
        </mxCell>
        <mxCell id="e5fGJ2bErtbxZkrx5kii-55" value="" style="shape=tableRow;horizontal=0;startSize=0;swimlaneHead=0;swimlaneBody=0;fillColor=none;collapsible=0;dropTarget=0;points=[[0,0.5],[1,0.5]];portConstraint=eastwest;top=0;left=0;right=0;bottom=0;" parent="e5fGJ2bErtbxZkrx5kii-36" vertex="1">
          <mxGeometry y="208" width="180" height="30" as="geometry" />
        </mxCell>
        <mxCell id="e5fGJ2bErtbxZkrx5kii-56" value="" style="shape=partialRectangle;connectable=0;fillColor=none;top=0;left=0;bottom=0;right=0;editable=1;overflow=hidden;whiteSpace=wrap;html=1;" parent="e5fGJ2bErtbxZkrx5kii-55" vertex="1">
          <mxGeometry width="30" height="30" as="geometry">
            <mxRectangle width="30" height="30" as="alternateBounds" />
          </mxGeometry>
        </mxCell>
        <mxCell id="e5fGJ2bErtbxZkrx5kii-57" value="Phone" style="shape=partialRectangle;connectable=0;fillColor=none;top=0;left=0;bottom=0;right=0;align=left;spacingLeft=6;overflow=hidden;whiteSpace=wrap;html=1;fontSize=13;" parent="e5fGJ2bErtbxZkrx5kii-55" vertex="1">
          <mxGeometry x="30" width="150" height="30" as="geometry">
            <mxRectangle width="150" height="30" as="alternateBounds" />
          </mxGeometry>
        </mxCell>
        <mxCell id="e5fGJ2bErtbxZkrx5kii-104" value="" style="shape=tableRow;horizontal=0;startSize=0;swimlaneHead=0;swimlaneBody=0;fillColor=none;collapsible=0;dropTarget=0;points=[[0,0.5],[1,0.5]];portConstraint=eastwest;top=0;left=0;right=0;bottom=0;" parent="e5fGJ2bErtbxZkrx5kii-36" vertex="1">
          <mxGeometry y="238" width="180" height="30" as="geometry" />
        </mxCell>
        <mxCell id="e5fGJ2bErtbxZkrx5kii-105" value="" style="shape=partialRectangle;connectable=0;fillColor=none;top=0;left=0;bottom=0;right=0;editable=1;overflow=hidden;whiteSpace=wrap;html=1;" parent="e5fGJ2bErtbxZkrx5kii-104" vertex="1">
          <mxGeometry width="30" height="30" as="geometry">
            <mxRectangle width="30" height="30" as="alternateBounds" />
          </mxGeometry>
        </mxCell>
        <mxCell id="e5fGJ2bErtbxZkrx5kii-106" value="Image" style="shape=partialRectangle;connectable=0;fillColor=none;top=0;left=0;bottom=0;right=0;align=left;spacingLeft=6;overflow=hidden;whiteSpace=wrap;html=1;fontSize=13;" parent="e5fGJ2bErtbxZkrx5kii-104" vertex="1">
          <mxGeometry x="30" width="150" height="30" as="geometry">
            <mxRectangle width="150" height="30" as="alternateBounds" />
          </mxGeometry>
        </mxCell>
        <mxCell id="e5fGJ2bErtbxZkrx5kii-58" value="Role" style="shape=table;startSize=30;container=1;collapsible=1;childLayout=tableLayout;fixedRows=1;rowLines=0;fontStyle=1;align=center;resizeLast=1;html=1;" parent="1" vertex="1">
          <mxGeometry x="631" y="565" width="180" height="90" as="geometry" />
        </mxCell>
        <mxCell id="e5fGJ2bErtbxZkrx5kii-59" value="" style="shape=tableRow;horizontal=0;startSize=0;swimlaneHead=0;swimlaneBody=0;fillColor=none;collapsible=0;dropTarget=0;points=[[0,0.5],[1,0.5]];portConstraint=eastwest;top=0;left=0;right=0;bottom=1;" parent="e5fGJ2bErtbxZkrx5kii-58" vertex="1">
          <mxGeometry y="30" width="180" height="30" as="geometry" />
        </mxCell>
        <mxCell id="e5fGJ2bErtbxZkrx5kii-60" value="PK" style="shape=partialRectangle;connectable=0;fillColor=none;top=0;left=0;bottom=0;right=0;fontStyle=1;overflow=hidden;whiteSpace=wrap;html=1;" parent="e5fGJ2bErtbxZkrx5kii-59" vertex="1">
          <mxGeometry width="30" height="30" as="geometry">
            <mxRectangle width="30" height="30" as="alternateBounds" />
          </mxGeometry>
        </mxCell>
        <mxCell id="e5fGJ2bErtbxZkrx5kii-61" value="ID" style="shape=partialRectangle;connectable=0;fillColor=none;top=0;left=0;bottom=0;right=0;align=left;spacingLeft=6;fontStyle=5;overflow=hidden;whiteSpace=wrap;html=1;" parent="e5fGJ2bErtbxZkrx5kii-59" vertex="1">
          <mxGeometry x="30" width="150" height="30" as="geometry">
            <mxRectangle width="150" height="30" as="alternateBounds" />
          </mxGeometry>
        </mxCell>
        <mxCell id="e5fGJ2bErtbxZkrx5kii-62" value="" style="shape=tableRow;horizontal=0;startSize=0;swimlaneHead=0;swimlaneBody=0;fillColor=none;collapsible=0;dropTarget=0;points=[[0,0.5],[1,0.5]];portConstraint=eastwest;top=0;left=0;right=0;bottom=0;" parent="e5fGJ2bErtbxZkrx5kii-58" vertex="1">
          <mxGeometry y="60" width="180" height="30" as="geometry" />
        </mxCell>
        <mxCell id="e5fGJ2bErtbxZkrx5kii-63" value="" style="shape=partialRectangle;connectable=0;fillColor=none;top=0;left=0;bottom=0;right=0;editable=1;overflow=hidden;whiteSpace=wrap;html=1;" parent="e5fGJ2bErtbxZkrx5kii-62" vertex="1">
          <mxGeometry width="30" height="30" as="geometry">
            <mxRectangle width="30" height="30" as="alternateBounds" />
          </mxGeometry>
        </mxCell>
        <mxCell id="e5fGJ2bErtbxZkrx5kii-64" value="Name" style="shape=partialRectangle;connectable=0;fillColor=none;top=0;left=0;bottom=0;right=0;align=left;spacingLeft=6;overflow=hidden;whiteSpace=wrap;html=1;fontStyle=0;fontSize=13;" parent="e5fGJ2bErtbxZkrx5kii-62" vertex="1">
          <mxGeometry x="30" width="150" height="30" as="geometry">
            <mxRectangle width="150" height="30" as="alternateBounds" />
          </mxGeometry>
        </mxCell>
        <mxCell id="e5fGJ2bErtbxZkrx5kii-74" value="UserRoles" style="shape=table;startSize=29;container=1;collapsible=1;childLayout=tableLayout;fixedRows=1;rowLines=0;fontStyle=1;align=center;resizeLast=1;html=1;" parent="1" vertex="1">
          <mxGeometry x="931" y="504" width="180" height="120" as="geometry" />
        </mxCell>
        <mxCell id="e5fGJ2bErtbxZkrx5kii-75" value="" style="shape=tableRow;horizontal=0;startSize=0;swimlaneHead=0;swimlaneBody=0;fillColor=none;collapsible=0;dropTarget=0;points=[[0,0.5],[1,0.5]];portConstraint=eastwest;top=0;left=0;right=0;bottom=1;" parent="e5fGJ2bErtbxZkrx5kii-74" vertex="1">
          <mxGeometry y="29" width="180" height="30" as="geometry" />
        </mxCell>
        <mxCell id="e5fGJ2bErtbxZkrx5kii-76" value="PK" style="shape=partialRectangle;connectable=0;fillColor=none;top=0;left=0;bottom=0;right=0;fontStyle=1;overflow=hidden;whiteSpace=wrap;html=1;" parent="e5fGJ2bErtbxZkrx5kii-75" vertex="1">
          <mxGeometry width="30" height="30" as="geometry">
            <mxRectangle width="30" height="30" as="alternateBounds" />
          </mxGeometry>
        </mxCell>
        <mxCell id="e5fGJ2bErtbxZkrx5kii-77" value="ID" style="shape=partialRectangle;connectable=0;fillColor=none;top=0;left=0;bottom=0;right=0;align=left;spacingLeft=6;fontStyle=5;overflow=hidden;whiteSpace=wrap;html=1;" parent="e5fGJ2bErtbxZkrx5kii-75" vertex="1">
          <mxGeometry x="30" width="150" height="30" as="geometry">
            <mxRectangle width="150" height="30" as="alternateBounds" />
          </mxGeometry>
        </mxCell>
        <mxCell id="e5fGJ2bErtbxZkrx5kii-78" value="" style="shape=tableRow;horizontal=0;startSize=0;swimlaneHead=0;swimlaneBody=0;fillColor=none;collapsible=0;dropTarget=0;points=[[0,0.5],[1,0.5]];portConstraint=eastwest;top=0;left=0;right=0;bottom=0;" parent="e5fGJ2bErtbxZkrx5kii-74" vertex="1">
          <mxGeometry y="59" width="180" height="30" as="geometry" />
        </mxCell>
        <mxCell id="e5fGJ2bErtbxZkrx5kii-79" value="fk" style="shape=partialRectangle;connectable=0;fillColor=none;top=0;left=0;bottom=0;right=0;editable=1;overflow=hidden;whiteSpace=wrap;html=1;" parent="e5fGJ2bErtbxZkrx5kii-78" vertex="1">
          <mxGeometry width="30" height="30" as="geometry">
            <mxRectangle width="30" height="30" as="alternateBounds" />
          </mxGeometry>
        </mxCell>
        <mxCell id="e5fGJ2bErtbxZkrx5kii-80" value="UserId" style="shape=partialRectangle;connectable=0;fillColor=none;top=0;left=0;bottom=0;right=0;align=left;spacingLeft=6;overflow=hidden;whiteSpace=wrap;html=1;fontStyle=0;fontSize=13;" parent="e5fGJ2bErtbxZkrx5kii-78" vertex="1">
          <mxGeometry x="30" width="150" height="30" as="geometry">
            <mxRectangle width="150" height="30" as="alternateBounds" />
          </mxGeometry>
        </mxCell>
        <mxCell id="e5fGJ2bErtbxZkrx5kii-88" value="" style="shape=tableRow;horizontal=0;startSize=0;swimlaneHead=0;swimlaneBody=0;fillColor=none;collapsible=0;dropTarget=0;points=[[0,0.5],[1,0.5]];portConstraint=eastwest;top=0;left=0;right=0;bottom=0;" parent="e5fGJ2bErtbxZkrx5kii-74" vertex="1">
          <mxGeometry y="89" width="180" height="30" as="geometry" />
        </mxCell>
        <mxCell id="e5fGJ2bErtbxZkrx5kii-89" value="fk" style="shape=partialRectangle;connectable=0;fillColor=none;top=0;left=0;bottom=0;right=0;editable=1;overflow=hidden;whiteSpace=wrap;html=1;" parent="e5fGJ2bErtbxZkrx5kii-88" vertex="1">
          <mxGeometry width="30" height="30" as="geometry">
            <mxRectangle width="30" height="30" as="alternateBounds" />
          </mxGeometry>
        </mxCell>
        <mxCell id="e5fGJ2bErtbxZkrx5kii-90" value="RoleId" style="shape=partialRectangle;connectable=0;fillColor=none;top=0;left=0;bottom=0;right=0;align=left;spacingLeft=6;overflow=hidden;whiteSpace=wrap;html=1;fontStyle=0;fontSize=13;" parent="e5fGJ2bErtbxZkrx5kii-88" vertex="1">
          <mxGeometry x="30" width="150" height="30" as="geometry">
            <mxRectangle width="150" height="30" as="alternateBounds" />
          </mxGeometry>
        </mxCell>
        <mxCell id="e5fGJ2bErtbxZkrx5kii-94" value="Category" style="shape=table;startSize=30;container=1;collapsible=1;childLayout=tableLayout;fixedRows=1;rowLines=0;fontStyle=1;align=center;resizeLast=1;html=1;" parent="1" vertex="1">
          <mxGeometry x="1094" y="-662" width="180" height="120" as="geometry" />
        </mxCell>
        <mxCell id="e5fGJ2bErtbxZkrx5kii-95" value="" style="shape=tableRow;horizontal=0;startSize=0;swimlaneHead=0;swimlaneBody=0;fillColor=none;collapsible=0;dropTarget=0;points=[[0,0.5],[1,0.5]];portConstraint=eastwest;top=0;left=0;right=0;bottom=1;" parent="e5fGJ2bErtbxZkrx5kii-94" vertex="1">
          <mxGeometry y="30" width="180" height="30" as="geometry" />
        </mxCell>
        <mxCell id="e5fGJ2bErtbxZkrx5kii-96" value="PK" style="shape=partialRectangle;connectable=0;fillColor=none;top=0;left=0;bottom=0;right=0;fontStyle=1;overflow=hidden;whiteSpace=wrap;html=1;" parent="e5fGJ2bErtbxZkrx5kii-95" vertex="1">
          <mxGeometry width="30" height="30" as="geometry">
            <mxRectangle width="30" height="30" as="alternateBounds" />
          </mxGeometry>
        </mxCell>
        <mxCell id="e5fGJ2bErtbxZkrx5kii-97" value="ID" style="shape=partialRectangle;connectable=0;fillColor=none;top=0;left=0;bottom=0;right=0;align=left;spacingLeft=6;fontStyle=5;overflow=hidden;whiteSpace=wrap;html=1;" parent="e5fGJ2bErtbxZkrx5kii-95" vertex="1">
          <mxGeometry x="30" width="150" height="30" as="geometry">
            <mxRectangle width="150" height="30" as="alternateBounds" />
          </mxGeometry>
        </mxCell>
        <mxCell id="e5fGJ2bErtbxZkrx5kii-98" value="" style="shape=tableRow;horizontal=0;startSize=0;swimlaneHead=0;swimlaneBody=0;fillColor=none;collapsible=0;dropTarget=0;points=[[0,0.5],[1,0.5]];portConstraint=eastwest;top=0;left=0;right=0;bottom=0;" parent="e5fGJ2bErtbxZkrx5kii-94" vertex="1">
          <mxGeometry y="60" width="180" height="30" as="geometry" />
        </mxCell>
        <mxCell id="e5fGJ2bErtbxZkrx5kii-99" value="" style="shape=partialRectangle;connectable=0;fillColor=none;top=0;left=0;bottom=0;right=0;editable=1;overflow=hidden;whiteSpace=wrap;html=1;" parent="e5fGJ2bErtbxZkrx5kii-98" vertex="1">
          <mxGeometry width="30" height="30" as="geometry">
            <mxRectangle width="30" height="30" as="alternateBounds" />
          </mxGeometry>
        </mxCell>
        <mxCell id="e5fGJ2bErtbxZkrx5kii-100" value="Name" style="shape=partialRectangle;connectable=0;fillColor=none;top=0;left=0;bottom=0;right=0;align=left;spacingLeft=6;overflow=hidden;whiteSpace=wrap;html=1;fontStyle=0;fontSize=13;" parent="e5fGJ2bErtbxZkrx5kii-98" vertex="1">
          <mxGeometry x="30" width="150" height="30" as="geometry">
            <mxRectangle width="150" height="30" as="alternateBounds" />
          </mxGeometry>
        </mxCell>
        <mxCell id="e5fGJ2bErtbxZkrx5kii-101" value="" style="shape=tableRow;horizontal=0;startSize=0;swimlaneHead=0;swimlaneBody=0;fillColor=none;collapsible=0;dropTarget=0;points=[[0,0.5],[1,0.5]];portConstraint=eastwest;top=0;left=0;right=0;bottom=0;" parent="e5fGJ2bErtbxZkrx5kii-94" vertex="1">
          <mxGeometry y="90" width="180" height="30" as="geometry" />
        </mxCell>
        <mxCell id="e5fGJ2bErtbxZkrx5kii-102" value="" style="shape=partialRectangle;connectable=0;fillColor=none;top=0;left=0;bottom=0;right=0;editable=1;overflow=hidden;whiteSpace=wrap;html=1;" parent="e5fGJ2bErtbxZkrx5kii-101" vertex="1">
          <mxGeometry width="30" height="30" as="geometry">
            <mxRectangle width="30" height="30" as="alternateBounds" />
          </mxGeometry>
        </mxCell>
        <mxCell id="e5fGJ2bErtbxZkrx5kii-103" value="Image" style="shape=partialRectangle;connectable=0;fillColor=none;top=0;left=0;bottom=0;right=0;align=left;spacingLeft=6;overflow=hidden;whiteSpace=wrap;html=1;fontStyle=0;fontSize=13;" parent="e5fGJ2bErtbxZkrx5kii-101" vertex="1">
          <mxGeometry x="30" width="150" height="30" as="geometry">
            <mxRectangle width="150" height="30" as="alternateBounds" />
          </mxGeometry>
        </mxCell>
        <mxCell id="e5fGJ2bErtbxZkrx5kii-117" value="Item" style="shape=table;startSize=30;container=1;collapsible=1;childLayout=tableLayout;fixedRows=1;rowLines=0;fontStyle=1;align=center;resizeLast=1;html=1;" parent="1" vertex="1">
          <mxGeometry x="869" y="-201" width="180" height="478" as="geometry" />
        </mxCell>
        <mxCell id="e5fGJ2bErtbxZkrx5kii-118" value="" style="shape=tableRow;horizontal=0;startSize=0;swimlaneHead=0;swimlaneBody=0;fillColor=none;collapsible=0;dropTarget=0;points=[[0,0.5],[1,0.5]];portConstraint=eastwest;top=0;left=0;right=0;bottom=1;" parent="e5fGJ2bErtbxZkrx5kii-117" vertex="1">
          <mxGeometry y="30" width="180" height="30" as="geometry" />
        </mxCell>
        <mxCell id="e5fGJ2bErtbxZkrx5kii-119" value="PK" style="shape=partialRectangle;connectable=0;fillColor=none;top=0;left=0;bottom=0;right=0;fontStyle=1;overflow=hidden;whiteSpace=wrap;html=1;" parent="e5fGJ2bErtbxZkrx5kii-118" vertex="1">
          <mxGeometry width="30" height="30" as="geometry">
            <mxRectangle width="30" height="30" as="alternateBounds" />
          </mxGeometry>
        </mxCell>
        <mxCell id="e5fGJ2bErtbxZkrx5kii-120" value="ID" style="shape=partialRectangle;connectable=0;fillColor=none;top=0;left=0;bottom=0;right=0;align=left;spacingLeft=6;fontStyle=5;overflow=hidden;whiteSpace=wrap;html=1;" parent="e5fGJ2bErtbxZkrx5kii-118" vertex="1">
          <mxGeometry x="30" width="150" height="30" as="geometry">
            <mxRectangle width="150" height="30" as="alternateBounds" />
          </mxGeometry>
        </mxCell>
        <mxCell id="e5fGJ2bErtbxZkrx5kii-121" value="" style="shape=tableRow;horizontal=0;startSize=0;swimlaneHead=0;swimlaneBody=0;fillColor=none;collapsible=0;dropTarget=0;points=[[0,0.5],[1,0.5]];portConstraint=eastwest;top=0;left=0;right=0;bottom=0;" parent="e5fGJ2bErtbxZkrx5kii-117" vertex="1">
          <mxGeometry y="60" width="180" height="30" as="geometry" />
        </mxCell>
        <mxCell id="e5fGJ2bErtbxZkrx5kii-122" value="" style="shape=partialRectangle;connectable=0;fillColor=none;top=0;left=0;bottom=0;right=0;editable=1;overflow=hidden;whiteSpace=wrap;html=1;" parent="e5fGJ2bErtbxZkrx5kii-121" vertex="1">
          <mxGeometry width="30" height="30" as="geometry">
            <mxRectangle width="30" height="30" as="alternateBounds" />
          </mxGeometry>
        </mxCell>
        <mxCell id="e5fGJ2bErtbxZkrx5kii-123" value="Name" style="shape=partialRectangle;connectable=0;fillColor=none;top=0;left=0;bottom=0;right=0;align=left;spacingLeft=6;overflow=hidden;whiteSpace=wrap;html=1;fontStyle=0;fontSize=13;" parent="e5fGJ2bErtbxZkrx5kii-121" vertex="1">
          <mxGeometry x="30" width="150" height="30" as="geometry">
            <mxRectangle width="150" height="30" as="alternateBounds" />
          </mxGeometry>
        </mxCell>
        <mxCell id="e5fGJ2bErtbxZkrx5kii-124" value="" style="shape=tableRow;horizontal=0;startSize=0;swimlaneHead=0;swimlaneBody=0;fillColor=none;collapsible=0;dropTarget=0;points=[[0,0.5],[1,0.5]];portConstraint=eastwest;top=0;left=0;right=0;bottom=0;" parent="e5fGJ2bErtbxZkrx5kii-117" vertex="1">
          <mxGeometry y="90" width="180" height="28" as="geometry" />
        </mxCell>
        <mxCell id="e5fGJ2bErtbxZkrx5kii-125" value="fk" style="shape=partialRectangle;connectable=0;fillColor=none;top=0;left=0;bottom=0;right=0;editable=1;overflow=hidden;whiteSpace=wrap;html=1;" parent="e5fGJ2bErtbxZkrx5kii-124" vertex="1">
          <mxGeometry width="30" height="28" as="geometry">
            <mxRectangle width="30" height="28" as="alternateBounds" />
          </mxGeometry>
        </mxCell>
        <mxCell id="e5fGJ2bErtbxZkrx5kii-126" value="CategoryId" style="shape=partialRectangle;connectable=0;fillColor=none;top=0;left=0;bottom=0;right=0;align=left;spacingLeft=6;overflow=hidden;whiteSpace=wrap;html=1;fontSize=13;" parent="e5fGJ2bErtbxZkrx5kii-124" vertex="1">
          <mxGeometry x="30" width="150" height="28" as="geometry">
            <mxRectangle width="150" height="28" as="alternateBounds" />
          </mxGeometry>
        </mxCell>
        <mxCell id="e5fGJ2bErtbxZkrx5kii-127" value="" style="shape=tableRow;horizontal=0;startSize=0;swimlaneHead=0;swimlaneBody=0;fillColor=none;collapsible=0;dropTarget=0;points=[[0,0.5],[1,0.5]];portConstraint=eastwest;top=0;left=0;right=0;bottom=0;" parent="e5fGJ2bErtbxZkrx5kii-117" vertex="1">
          <mxGeometry y="118" width="180" height="30" as="geometry" />
        </mxCell>
        <mxCell id="e5fGJ2bErtbxZkrx5kii-128" value="" style="shape=partialRectangle;connectable=0;fillColor=none;top=0;left=0;bottom=0;right=0;editable=1;overflow=hidden;whiteSpace=wrap;html=1;" parent="e5fGJ2bErtbxZkrx5kii-127" vertex="1">
          <mxGeometry width="30" height="30" as="geometry">
            <mxRectangle width="30" height="30" as="alternateBounds" />
          </mxGeometry>
        </mxCell>
        <mxCell id="e5fGJ2bErtbxZkrx5kii-129" value="SalesPrice" style="shape=partialRectangle;connectable=0;fillColor=none;top=0;left=0;bottom=0;right=0;align=left;spacingLeft=6;overflow=hidden;whiteSpace=wrap;html=1;fontSize=13;" parent="e5fGJ2bErtbxZkrx5kii-127" vertex="1">
          <mxGeometry x="30" width="150" height="30" as="geometry">
            <mxRectangle width="150" height="30" as="alternateBounds" />
          </mxGeometry>
        </mxCell>
        <mxCell id="e5fGJ2bErtbxZkrx5kii-130" value="" style="shape=tableRow;horizontal=0;startSize=0;swimlaneHead=0;swimlaneBody=0;fillColor=none;collapsible=0;dropTarget=0;points=[[0,0.5],[1,0.5]];portConstraint=eastwest;top=0;left=0;right=0;bottom=0;" parent="e5fGJ2bErtbxZkrx5kii-117" vertex="1">
          <mxGeometry y="148" width="180" height="30" as="geometry" />
        </mxCell>
        <mxCell id="e5fGJ2bErtbxZkrx5kii-131" value="" style="shape=partialRectangle;connectable=0;fillColor=none;top=0;left=0;bottom=0;right=0;editable=1;overflow=hidden;whiteSpace=wrap;html=1;" parent="e5fGJ2bErtbxZkrx5kii-130" vertex="1">
          <mxGeometry width="30" height="30" as="geometry">
            <mxRectangle width="30" height="30" as="alternateBounds" />
          </mxGeometry>
        </mxCell>
        <mxCell id="e5fGJ2bErtbxZkrx5kii-132" value="PurchasePrice" style="shape=partialRectangle;connectable=0;fillColor=none;top=0;left=0;bottom=0;right=0;align=left;spacingLeft=6;overflow=hidden;whiteSpace=wrap;html=1;fontSize=13;" parent="e5fGJ2bErtbxZkrx5kii-130" vertex="1">
          <mxGeometry x="30" width="150" height="30" as="geometry">
            <mxRectangle width="150" height="30" as="alternateBounds" />
          </mxGeometry>
        </mxCell>
        <mxCell id="e5fGJ2bErtbxZkrx5kii-133" value="" style="shape=tableRow;horizontal=0;startSize=0;swimlaneHead=0;swimlaneBody=0;fillColor=none;collapsible=0;dropTarget=0;points=[[0,0.5],[1,0.5]];portConstraint=eastwest;top=0;left=0;right=0;bottom=0;" parent="e5fGJ2bErtbxZkrx5kii-117" vertex="1">
          <mxGeometry y="178" width="180" height="30" as="geometry" />
        </mxCell>
        <mxCell id="e5fGJ2bErtbxZkrx5kii-134" value="" style="shape=partialRectangle;connectable=0;fillColor=none;top=0;left=0;bottom=0;right=0;editable=1;overflow=hidden;whiteSpace=wrap;html=1;" parent="e5fGJ2bErtbxZkrx5kii-133" vertex="1">
          <mxGeometry width="30" height="30" as="geometry">
            <mxRectangle width="30" height="30" as="alternateBounds" />
          </mxGeometry>
        </mxCell>
        <mxCell id="e5fGJ2bErtbxZkrx5kii-135" value="Description&lt;span style=&quot;white-space: pre;&quot;&gt;&#x9;&lt;/span&gt;" style="shape=partialRectangle;connectable=0;fillColor=none;top=0;left=0;bottom=0;right=0;align=left;spacingLeft=6;overflow=hidden;whiteSpace=wrap;html=1;fontSize=13;" parent="e5fGJ2bErtbxZkrx5kii-133" vertex="1">
          <mxGeometry x="30" width="150" height="30" as="geometry">
            <mxRectangle width="150" height="30" as="alternateBounds" />
          </mxGeometry>
        </mxCell>
        <mxCell id="e5fGJ2bErtbxZkrx5kii-149" value="" style="shape=tableRow;horizontal=0;startSize=0;swimlaneHead=0;swimlaneBody=0;fillColor=none;collapsible=0;dropTarget=0;points=[[0,0.5],[1,0.5]];portConstraint=eastwest;top=0;left=0;right=0;bottom=0;" parent="e5fGJ2bErtbxZkrx5kii-117" vertex="1">
          <mxGeometry y="208" width="180" height="30" as="geometry" />
        </mxCell>
        <mxCell id="e5fGJ2bErtbxZkrx5kii-150" value="fk" style="shape=partialRectangle;connectable=0;fillColor=none;top=0;left=0;bottom=0;right=0;editable=1;overflow=hidden;whiteSpace=wrap;html=1;" parent="e5fGJ2bErtbxZkrx5kii-149" vertex="1">
          <mxGeometry width="30" height="30" as="geometry">
            <mxRectangle width="30" height="30" as="alternateBounds" />
          </mxGeometry>
        </mxCell>
        <mxCell id="e5fGJ2bErtbxZkrx5kii-151" value="ItemTypeId" style="shape=partialRectangle;connectable=0;fillColor=none;top=0;left=0;bottom=0;right=0;align=left;spacingLeft=6;overflow=hidden;whiteSpace=wrap;html=1;fontSize=13;" parent="e5fGJ2bErtbxZkrx5kii-149" vertex="1">
          <mxGeometry x="30" width="150" height="30" as="geometry">
            <mxRectangle width="150" height="30" as="alternateBounds" />
          </mxGeometry>
        </mxCell>
        <mxCell id="e5fGJ2bErtbxZkrx5kii-152" value="" style="shape=tableRow;horizontal=0;startSize=0;swimlaneHead=0;swimlaneBody=0;fillColor=none;collapsible=0;dropTarget=0;points=[[0,0.5],[1,0.5]];portConstraint=eastwest;top=0;left=0;right=0;bottom=0;" parent="e5fGJ2bErtbxZkrx5kii-117" vertex="1">
          <mxGeometry y="238" width="180" height="30" as="geometry" />
        </mxCell>
        <mxCell id="e5fGJ2bErtbxZkrx5kii-153" value="fk" style="shape=partialRectangle;connectable=0;fillColor=none;top=0;left=0;bottom=0;right=0;editable=1;overflow=hidden;whiteSpace=wrap;html=1;" parent="e5fGJ2bErtbxZkrx5kii-152" vertex="1">
          <mxGeometry width="30" height="30" as="geometry">
            <mxRectangle width="30" height="30" as="alternateBounds" />
          </mxGeometry>
        </mxCell>
        <mxCell id="e5fGJ2bErtbxZkrx5kii-154" value="OsId" style="shape=partialRectangle;connectable=0;fillColor=none;top=0;left=0;bottom=0;right=0;align=left;spacingLeft=6;overflow=hidden;whiteSpace=wrap;html=1;fontSize=13;" parent="e5fGJ2bErtbxZkrx5kii-152" vertex="1">
          <mxGeometry x="30" width="150" height="30" as="geometry">
            <mxRectangle width="150" height="30" as="alternateBounds" />
          </mxGeometry>
        </mxCell>
        <mxCell id="e5fGJ2bErtbxZkrx5kii-155" value="" style="shape=tableRow;horizontal=0;startSize=0;swimlaneHead=0;swimlaneBody=0;fillColor=none;collapsible=0;dropTarget=0;points=[[0,0.5],[1,0.5]];portConstraint=eastwest;top=0;left=0;right=0;bottom=0;" parent="e5fGJ2bErtbxZkrx5kii-117" vertex="1">
          <mxGeometry y="268" width="180" height="30" as="geometry" />
        </mxCell>
        <mxCell id="e5fGJ2bErtbxZkrx5kii-156" value="fk" style="shape=partialRectangle;connectable=0;fillColor=none;top=0;left=0;bottom=0;right=0;editable=1;overflow=hidden;whiteSpace=wrap;html=1;" parent="e5fGJ2bErtbxZkrx5kii-155" vertex="1">
          <mxGeometry width="30" height="30" as="geometry">
            <mxRectangle width="30" height="30" as="alternateBounds" />
          </mxGeometry>
        </mxCell>
        <mxCell id="e5fGJ2bErtbxZkrx5kii-157" value="GpuId" style="shape=partialRectangle;connectable=0;fillColor=none;top=0;left=0;bottom=0;right=0;align=left;spacingLeft=6;overflow=hidden;whiteSpace=wrap;html=1;fontSize=13;" parent="e5fGJ2bErtbxZkrx5kii-155" vertex="1">
          <mxGeometry x="30" width="150" height="30" as="geometry">
            <mxRectangle width="150" height="30" as="alternateBounds" />
          </mxGeometry>
        </mxCell>
        <mxCell id="e5fGJ2bErtbxZkrx5kii-158" value="" style="shape=tableRow;horizontal=0;startSize=0;swimlaneHead=0;swimlaneBody=0;fillColor=none;collapsible=0;dropTarget=0;points=[[0,0.5],[1,0.5]];portConstraint=eastwest;top=0;left=0;right=0;bottom=0;" parent="e5fGJ2bErtbxZkrx5kii-117" vertex="1">
          <mxGeometry y="298" width="180" height="30" as="geometry" />
        </mxCell>
        <mxCell id="e5fGJ2bErtbxZkrx5kii-159" value="fk" style="shape=partialRectangle;connectable=0;fillColor=none;top=0;left=0;bottom=0;right=0;editable=1;overflow=hidden;whiteSpace=wrap;html=1;" parent="e5fGJ2bErtbxZkrx5kii-158" vertex="1">
          <mxGeometry width="30" height="30" as="geometry">
            <mxRectangle width="30" height="30" as="alternateBounds" />
          </mxGeometry>
        </mxCell>
        <mxCell id="e5fGJ2bErtbxZkrx5kii-160" value="ProcessorId" style="shape=partialRectangle;connectable=0;fillColor=none;top=0;left=0;bottom=0;right=0;align=left;spacingLeft=6;overflow=hidden;whiteSpace=wrap;html=1;fontSize=13;" parent="e5fGJ2bErtbxZkrx5kii-158" vertex="1">
          <mxGeometry x="30" width="150" height="30" as="geometry">
            <mxRectangle width="150" height="30" as="alternateBounds" />
          </mxGeometry>
        </mxCell>
        <mxCell id="e5fGJ2bErtbxZkrx5kii-161" value="" style="shape=tableRow;horizontal=0;startSize=0;swimlaneHead=0;swimlaneBody=0;fillColor=none;collapsible=0;dropTarget=0;points=[[0,0.5],[1,0.5]];portConstraint=eastwest;top=0;left=0;right=0;bottom=0;" parent="e5fGJ2bErtbxZkrx5kii-117" vertex="1">
          <mxGeometry y="328" width="180" height="30" as="geometry" />
        </mxCell>
        <mxCell id="e5fGJ2bErtbxZkrx5kii-162" value="fk" style="shape=partialRectangle;connectable=0;fillColor=none;top=0;left=0;bottom=0;right=0;editable=1;overflow=hidden;whiteSpace=wrap;html=1;" parent="e5fGJ2bErtbxZkrx5kii-161" vertex="1">
          <mxGeometry width="30" height="30" as="geometry">
            <mxRectangle width="30" height="30" as="alternateBounds" />
          </mxGeometry>
        </mxCell>
        <mxCell id="e5fGJ2bErtbxZkrx5kii-163" value="HardDiskId" style="shape=partialRectangle;connectable=0;fillColor=none;top=0;left=0;bottom=0;right=0;align=left;spacingLeft=6;overflow=hidden;whiteSpace=wrap;html=1;fontSize=13;" parent="e5fGJ2bErtbxZkrx5kii-161" vertex="1">
          <mxGeometry x="30" width="150" height="30" as="geometry">
            <mxRectangle width="150" height="30" as="alternateBounds" />
          </mxGeometry>
        </mxCell>
        <mxCell id="e5fGJ2bErtbxZkrx5kii-164" value="" style="shape=tableRow;horizontal=0;startSize=0;swimlaneHead=0;swimlaneBody=0;fillColor=none;collapsible=0;dropTarget=0;points=[[0,0.5],[1,0.5]];portConstraint=eastwest;top=0;left=0;right=0;bottom=0;" parent="e5fGJ2bErtbxZkrx5kii-117" vertex="1">
          <mxGeometry y="358" width="180" height="30" as="geometry" />
        </mxCell>
        <mxCell id="e5fGJ2bErtbxZkrx5kii-165" value="fk" style="shape=partialRectangle;connectable=0;fillColor=none;top=0;left=0;bottom=0;right=0;editable=1;overflow=hidden;whiteSpace=wrap;html=1;" parent="e5fGJ2bErtbxZkrx5kii-164" vertex="1">
          <mxGeometry width="30" height="30" as="geometry">
            <mxRectangle width="30" height="30" as="alternateBounds" />
          </mxGeometry>
        </mxCell>
        <mxCell id="e5fGJ2bErtbxZkrx5kii-166" value="RamId" style="shape=partialRectangle;connectable=0;fillColor=none;top=0;left=0;bottom=0;right=0;align=left;spacingLeft=6;overflow=hidden;whiteSpace=wrap;html=1;fontSize=13;" parent="e5fGJ2bErtbxZkrx5kii-164" vertex="1">
          <mxGeometry x="30" width="150" height="30" as="geometry">
            <mxRectangle width="150" height="30" as="alternateBounds" />
          </mxGeometry>
        </mxCell>
        <mxCell id="e5fGJ2bErtbxZkrx5kii-167" value="" style="shape=tableRow;horizontal=0;startSize=0;swimlaneHead=0;swimlaneBody=0;fillColor=none;collapsible=0;dropTarget=0;points=[[0,0.5],[1,0.5]];portConstraint=eastwest;top=0;left=0;right=0;bottom=0;" parent="e5fGJ2bErtbxZkrx5kii-117" vertex="1">
          <mxGeometry y="388" width="180" height="30" as="geometry" />
        </mxCell>
        <mxCell id="e5fGJ2bErtbxZkrx5kii-168" value="" style="shape=partialRectangle;connectable=0;fillColor=none;top=0;left=0;bottom=0;right=0;editable=1;overflow=hidden;whiteSpace=wrap;html=1;" parent="e5fGJ2bErtbxZkrx5kii-167" vertex="1">
          <mxGeometry width="30" height="30" as="geometry">
            <mxRectangle width="30" height="30" as="alternateBounds" />
          </mxGeometry>
        </mxCell>
        <mxCell id="e5fGJ2bErtbxZkrx5kii-169" value="ScreenResolution" style="shape=partialRectangle;connectable=0;fillColor=none;top=0;left=0;bottom=0;right=0;align=left;spacingLeft=6;overflow=hidden;whiteSpace=wrap;html=1;fontSize=13;" parent="e5fGJ2bErtbxZkrx5kii-167" vertex="1">
          <mxGeometry x="30" width="150" height="30" as="geometry">
            <mxRectangle width="150" height="30" as="alternateBounds" />
          </mxGeometry>
        </mxCell>
        <mxCell id="e5fGJ2bErtbxZkrx5kii-170" value="" style="shape=tableRow;horizontal=0;startSize=0;swimlaneHead=0;swimlaneBody=0;fillColor=none;collapsible=0;dropTarget=0;points=[[0,0.5],[1,0.5]];portConstraint=eastwest;top=0;left=0;right=0;bottom=0;" parent="e5fGJ2bErtbxZkrx5kii-117" vertex="1">
          <mxGeometry y="418" width="180" height="30" as="geometry" />
        </mxCell>
        <mxCell id="e5fGJ2bErtbxZkrx5kii-171" value="" style="shape=partialRectangle;connectable=0;fillColor=none;top=0;left=0;bottom=0;right=0;editable=1;overflow=hidden;whiteSpace=wrap;html=1;" parent="e5fGJ2bErtbxZkrx5kii-170" vertex="1">
          <mxGeometry width="30" height="30" as="geometry">
            <mxRectangle width="30" height="30" as="alternateBounds" />
          </mxGeometry>
        </mxCell>
        <mxCell id="e5fGJ2bErtbxZkrx5kii-172" value="ScreenSize" style="shape=partialRectangle;connectable=0;fillColor=none;top=0;left=0;bottom=0;right=0;align=left;spacingLeft=6;overflow=hidden;whiteSpace=wrap;html=1;fontSize=13;" parent="e5fGJ2bErtbxZkrx5kii-170" vertex="1">
          <mxGeometry x="30" width="150" height="30" as="geometry">
            <mxRectangle width="150" height="30" as="alternateBounds" />
          </mxGeometry>
        </mxCell>
        <mxCell id="e5fGJ2bErtbxZkrx5kii-173" value="" style="shape=tableRow;horizontal=0;startSize=0;swimlaneHead=0;swimlaneBody=0;fillColor=none;collapsible=0;dropTarget=0;points=[[0,0.5],[1,0.5]];portConstraint=eastwest;top=0;left=0;right=0;bottom=0;" parent="e5fGJ2bErtbxZkrx5kii-117" vertex="1">
          <mxGeometry y="448" width="180" height="30" as="geometry" />
        </mxCell>
        <mxCell id="e5fGJ2bErtbxZkrx5kii-174" value="" style="shape=partialRectangle;connectable=0;fillColor=none;top=0;left=0;bottom=0;right=0;editable=1;overflow=hidden;whiteSpace=wrap;html=1;" parent="e5fGJ2bErtbxZkrx5kii-173" vertex="1">
          <mxGeometry width="30" height="30" as="geometry">
            <mxRectangle width="30" height="30" as="alternateBounds" />
          </mxGeometry>
        </mxCell>
        <mxCell id="e5fGJ2bErtbxZkrx5kii-175" value="Weight" style="shape=partialRectangle;connectable=0;fillColor=none;top=0;left=0;bottom=0;right=0;align=left;spacingLeft=6;overflow=hidden;whiteSpace=wrap;html=1;fontSize=13;" parent="e5fGJ2bErtbxZkrx5kii-173" vertex="1">
          <mxGeometry x="30" width="150" height="30" as="geometry">
            <mxRectangle width="150" height="30" as="alternateBounds" />
          </mxGeometry>
        </mxCell>
        <mxCell id="e5fGJ2bErtbxZkrx5kii-136" value="Image" style="shape=table;startSize=30;container=1;collapsible=1;childLayout=tableLayout;fixedRows=1;rowLines=0;fontStyle=1;align=center;resizeLast=1;html=1;" parent="1" vertex="1">
          <mxGeometry x="1373" y="-662" width="180" height="150" as="geometry" />
        </mxCell>
        <mxCell id="e5fGJ2bErtbxZkrx5kii-137" value="" style="shape=tableRow;horizontal=0;startSize=0;swimlaneHead=0;swimlaneBody=0;fillColor=none;collapsible=0;dropTarget=0;points=[[0,0.5],[1,0.5]];portConstraint=eastwest;top=0;left=0;right=0;bottom=1;" parent="e5fGJ2bErtbxZkrx5kii-136" vertex="1">
          <mxGeometry y="30" width="180" height="30" as="geometry" />
        </mxCell>
        <mxCell id="e5fGJ2bErtbxZkrx5kii-138" value="PK" style="shape=partialRectangle;connectable=0;fillColor=none;top=0;left=0;bottom=0;right=0;fontStyle=1;overflow=hidden;whiteSpace=wrap;html=1;" parent="e5fGJ2bErtbxZkrx5kii-137" vertex="1">
          <mxGeometry width="31.31427873883922" height="30" as="geometry">
            <mxRectangle width="31.31427873883922" height="30" as="alternateBounds" />
          </mxGeometry>
        </mxCell>
        <mxCell id="e5fGJ2bErtbxZkrx5kii-139" value="ID" style="shape=partialRectangle;connectable=0;fillColor=none;top=0;left=0;bottom=0;right=0;align=left;spacingLeft=6;fontStyle=5;overflow=hidden;whiteSpace=wrap;html=1;" parent="e5fGJ2bErtbxZkrx5kii-137" vertex="1">
          <mxGeometry x="31.31427873883922" width="148.68572126116078" height="30" as="geometry">
            <mxRectangle width="148.68572126116078" height="30" as="alternateBounds" />
          </mxGeometry>
        </mxCell>
        <mxCell id="e5fGJ2bErtbxZkrx5kii-140" value="" style="shape=tableRow;horizontal=0;startSize=0;swimlaneHead=0;swimlaneBody=0;fillColor=none;collapsible=0;dropTarget=0;points=[[0,0.5],[1,0.5]];portConstraint=eastwest;top=0;left=0;right=0;bottom=0;" parent="e5fGJ2bErtbxZkrx5kii-136" vertex="1">
          <mxGeometry y="60" width="180" height="30" as="geometry" />
        </mxCell>
        <mxCell id="e5fGJ2bErtbxZkrx5kii-141" value="" style="shape=partialRectangle;connectable=0;fillColor=none;top=0;left=0;bottom=0;right=0;editable=1;overflow=hidden;whiteSpace=wrap;html=1;" parent="e5fGJ2bErtbxZkrx5kii-140" vertex="1">
          <mxGeometry width="31.31427873883922" height="30" as="geometry">
            <mxRectangle width="31.31427873883922" height="30" as="alternateBounds" />
          </mxGeometry>
        </mxCell>
        <mxCell id="e5fGJ2bErtbxZkrx5kii-142" value="Name" style="shape=partialRectangle;connectable=0;fillColor=none;top=0;left=0;bottom=0;right=0;align=left;spacingLeft=6;overflow=hidden;whiteSpace=wrap;html=1;fontStyle=0;fontSize=13;" parent="e5fGJ2bErtbxZkrx5kii-140" vertex="1">
          <mxGeometry x="31.31427873883922" width="148.68572126116078" height="30" as="geometry">
            <mxRectangle width="148.68572126116078" height="30" as="alternateBounds" />
          </mxGeometry>
        </mxCell>
        <mxCell id="e5fGJ2bErtbxZkrx5kii-143" value="" style="shape=tableRow;horizontal=0;startSize=0;swimlaneHead=0;swimlaneBody=0;fillColor=none;collapsible=0;dropTarget=0;points=[[0,0.5],[1,0.5]];portConstraint=eastwest;top=0;left=0;right=0;bottom=0;" parent="e5fGJ2bErtbxZkrx5kii-136" vertex="1">
          <mxGeometry y="90" width="180" height="30" as="geometry" />
        </mxCell>
        <mxCell id="e5fGJ2bErtbxZkrx5kii-144" value="fk" style="shape=partialRectangle;connectable=0;fillColor=none;top=0;left=0;bottom=0;right=0;editable=1;overflow=hidden;whiteSpace=wrap;html=1;" parent="e5fGJ2bErtbxZkrx5kii-143" vertex="1">
          <mxGeometry width="31.31427873883922" height="30" as="geometry">
            <mxRectangle width="31.31427873883922" height="30" as="alternateBounds" />
          </mxGeometry>
        </mxCell>
        <mxCell id="e5fGJ2bErtbxZkrx5kii-145" value="ItemId" style="shape=partialRectangle;connectable=0;fillColor=none;top=0;left=0;bottom=0;right=0;align=left;spacingLeft=6;overflow=hidden;whiteSpace=wrap;html=1;fontStyle=0;fontSize=13;" parent="e5fGJ2bErtbxZkrx5kii-143" vertex="1">
          <mxGeometry x="31.31427873883922" width="148.68572126116078" height="30" as="geometry">
            <mxRectangle width="148.68572126116078" height="30" as="alternateBounds" />
          </mxGeometry>
        </mxCell>
        <mxCell id="e5fGJ2bErtbxZkrx5kii-146" value="" style="shape=tableRow;horizontal=0;startSize=0;swimlaneHead=0;swimlaneBody=0;fillColor=none;collapsible=0;dropTarget=0;points=[[0,0.5],[1,0.5]];portConstraint=eastwest;top=0;left=0;right=0;bottom=0;" parent="e5fGJ2bErtbxZkrx5kii-136" vertex="1">
          <mxGeometry y="120" width="180" height="30" as="geometry" />
        </mxCell>
        <mxCell id="e5fGJ2bErtbxZkrx5kii-147" value="&lt;span style=&quot;white-space: pre;&quot;&gt;&#x9;&lt;/span&gt;" style="shape=partialRectangle;connectable=0;fillColor=none;top=0;left=0;bottom=0;right=0;editable=1;overflow=hidden;whiteSpace=wrap;html=1;" parent="e5fGJ2bErtbxZkrx5kii-146" vertex="1">
          <mxGeometry width="31.31427873883922" height="30" as="geometry">
            <mxRectangle width="31.31427873883922" height="30" as="alternateBounds" />
          </mxGeometry>
        </mxCell>
        <mxCell id="e5fGJ2bErtbxZkrx5kii-148" value="IsDefault" style="shape=partialRectangle;connectable=0;fillColor=none;top=0;left=0;bottom=0;right=0;align=left;spacingLeft=6;overflow=hidden;whiteSpace=wrap;html=1;fontStyle=0;fontSize=13;" parent="e5fGJ2bErtbxZkrx5kii-146" vertex="1">
          <mxGeometry x="31.31427873883922" width="148.68572126116078" height="30" as="geometry">
            <mxRectangle width="148.68572126116078" height="30" as="alternateBounds" />
          </mxGeometry>
        </mxCell>
        <mxCell id="e5fGJ2bErtbxZkrx5kii-176" value="ItemType" style="shape=table;startSize=30;container=1;collapsible=1;childLayout=tableLayout;fixedRows=1;rowLines=0;fontStyle=1;align=center;resizeLast=1;html=1;" parent="1" vertex="1">
          <mxGeometry x="1512" y="-492" width="180" height="121.125010172526" as="geometry" />
        </mxCell>
        <mxCell id="e5fGJ2bErtbxZkrx5kii-177" value="" style="shape=tableRow;horizontal=0;startSize=0;swimlaneHead=0;swimlaneBody=0;fillColor=none;collapsible=0;dropTarget=0;points=[[0,0.5],[1,0.5]];portConstraint=eastwest;top=0;left=0;right=0;bottom=1;" parent="e5fGJ2bErtbxZkrx5kii-176" vertex="1">
          <mxGeometry y="30" width="180" height="30" as="geometry" />
        </mxCell>
        <mxCell id="e5fGJ2bErtbxZkrx5kii-178" value="PK" style="shape=partialRectangle;connectable=0;fillColor=none;top=0;left=0;bottom=0;right=0;fontStyle=1;overflow=hidden;whiteSpace=wrap;html=1;" parent="e5fGJ2bErtbxZkrx5kii-177" vertex="1">
          <mxGeometry width="31.31427873883922" height="30" as="geometry">
            <mxRectangle width="31.31427873883922" height="30" as="alternateBounds" />
          </mxGeometry>
        </mxCell>
        <mxCell id="e5fGJ2bErtbxZkrx5kii-179" value="ID" style="shape=partialRectangle;connectable=0;fillColor=none;top=0;left=0;bottom=0;right=0;align=left;spacingLeft=6;fontStyle=5;overflow=hidden;whiteSpace=wrap;html=1;" parent="e5fGJ2bErtbxZkrx5kii-177" vertex="1">
          <mxGeometry x="31.31427873883922" width="148.68572126116078" height="30" as="geometry">
            <mxRectangle width="148.68572126116078" height="30" as="alternateBounds" />
          </mxGeometry>
        </mxCell>
        <mxCell id="e5fGJ2bErtbxZkrx5kii-180" value="" style="shape=tableRow;horizontal=0;startSize=0;swimlaneHead=0;swimlaneBody=0;fillColor=none;collapsible=0;dropTarget=0;points=[[0,0.5],[1,0.5]];portConstraint=eastwest;top=0;left=0;right=0;bottom=0;" parent="e5fGJ2bErtbxZkrx5kii-176" vertex="1">
          <mxGeometry y="60" width="180" height="30" as="geometry" />
        </mxCell>
        <mxCell id="e5fGJ2bErtbxZkrx5kii-181" value="" style="shape=partialRectangle;connectable=0;fillColor=none;top=0;left=0;bottom=0;right=0;editable=1;overflow=hidden;whiteSpace=wrap;html=1;" parent="e5fGJ2bErtbxZkrx5kii-180" vertex="1">
          <mxGeometry width="31.31427873883922" height="30" as="geometry">
            <mxRectangle width="31.31427873883922" height="30" as="alternateBounds" />
          </mxGeometry>
        </mxCell>
        <mxCell id="e5fGJ2bErtbxZkrx5kii-182" value="Name" style="shape=partialRectangle;connectable=0;fillColor=none;top=0;left=0;bottom=0;right=0;align=left;spacingLeft=6;overflow=hidden;whiteSpace=wrap;html=1;fontStyle=0;fontSize=13;" parent="e5fGJ2bErtbxZkrx5kii-180" vertex="1">
          <mxGeometry x="31.31427873883922" width="148.68572126116078" height="30" as="geometry">
            <mxRectangle width="148.68572126116078" height="30" as="alternateBounds" />
          </mxGeometry>
        </mxCell>
        <mxCell id="e5fGJ2bErtbxZkrx5kii-183" value="" style="shape=tableRow;horizontal=0;startSize=0;swimlaneHead=0;swimlaneBody=0;fillColor=none;collapsible=0;dropTarget=0;points=[[0,0.5],[1,0.5]];portConstraint=eastwest;top=0;left=0;right=0;bottom=0;" parent="e5fGJ2bErtbxZkrx5kii-176" vertex="1">
          <mxGeometry y="90" width="180" height="31" as="geometry" />
        </mxCell>
        <mxCell id="e5fGJ2bErtbxZkrx5kii-184" value="" style="shape=partialRectangle;connectable=0;fillColor=none;top=0;left=0;bottom=0;right=0;editable=1;overflow=hidden;whiteSpace=wrap;html=1;" parent="e5fGJ2bErtbxZkrx5kii-183" vertex="1">
          <mxGeometry width="31.31427873883922" height="31" as="geometry">
            <mxRectangle width="31.31427873883922" height="31" as="alternateBounds" />
          </mxGeometry>
        </mxCell>
        <mxCell id="e5fGJ2bErtbxZkrx5kii-185" value="Image" style="shape=partialRectangle;connectable=0;fillColor=none;top=0;left=0;bottom=0;right=0;align=left;spacingLeft=6;overflow=hidden;whiteSpace=wrap;html=1;fontStyle=0;fontSize=13;" parent="e5fGJ2bErtbxZkrx5kii-183" vertex="1">
          <mxGeometry x="31.31427873883922" width="148.68572126116078" height="31" as="geometry">
            <mxRectangle width="148.68572126116078" height="31" as="alternateBounds" />
          </mxGeometry>
        </mxCell>
        <mxCell id="e5fGJ2bErtbxZkrx5kii-198" value="Os" style="shape=table;startSize=30;container=1;collapsible=1;childLayout=tableLayout;fixedRows=1;rowLines=0;fontStyle=1;align=center;resizeLast=1;html=1;" parent="1" vertex="1">
          <mxGeometry x="1840" y="-453" width="180" height="121.125010172526" as="geometry" />
        </mxCell>
        <mxCell id="e5fGJ2bErtbxZkrx5kii-199" value="" style="shape=tableRow;horizontal=0;startSize=0;swimlaneHead=0;swimlaneBody=0;fillColor=none;collapsible=0;dropTarget=0;points=[[0,0.5],[1,0.5]];portConstraint=eastwest;top=0;left=0;right=0;bottom=1;" parent="e5fGJ2bErtbxZkrx5kii-198" vertex="1">
          <mxGeometry y="30" width="180" height="30" as="geometry" />
        </mxCell>
        <mxCell id="e5fGJ2bErtbxZkrx5kii-200" value="PK" style="shape=partialRectangle;connectable=0;fillColor=none;top=0;left=0;bottom=0;right=0;fontStyle=1;overflow=hidden;whiteSpace=wrap;html=1;" parent="e5fGJ2bErtbxZkrx5kii-199" vertex="1">
          <mxGeometry width="31.31427873883922" height="30" as="geometry">
            <mxRectangle width="31.31427873883922" height="30" as="alternateBounds" />
          </mxGeometry>
        </mxCell>
        <mxCell id="e5fGJ2bErtbxZkrx5kii-201" value="ID" style="shape=partialRectangle;connectable=0;fillColor=none;top=0;left=0;bottom=0;right=0;align=left;spacingLeft=6;fontStyle=5;overflow=hidden;whiteSpace=wrap;html=1;" parent="e5fGJ2bErtbxZkrx5kii-199" vertex="1">
          <mxGeometry x="31.31427873883922" width="148.68572126116078" height="30" as="geometry">
            <mxRectangle width="148.68572126116078" height="30" as="alternateBounds" />
          </mxGeometry>
        </mxCell>
        <mxCell id="e5fGJ2bErtbxZkrx5kii-202" value="" style="shape=tableRow;horizontal=0;startSize=0;swimlaneHead=0;swimlaneBody=0;fillColor=none;collapsible=0;dropTarget=0;points=[[0,0.5],[1,0.5]];portConstraint=eastwest;top=0;left=0;right=0;bottom=0;" parent="e5fGJ2bErtbxZkrx5kii-198" vertex="1">
          <mxGeometry y="60" width="180" height="30" as="geometry" />
        </mxCell>
        <mxCell id="e5fGJ2bErtbxZkrx5kii-203" value="" style="shape=partialRectangle;connectable=0;fillColor=none;top=0;left=0;bottom=0;right=0;editable=1;overflow=hidden;whiteSpace=wrap;html=1;" parent="e5fGJ2bErtbxZkrx5kii-202" vertex="1">
          <mxGeometry width="31.31427873883922" height="30" as="geometry">
            <mxRectangle width="31.31427873883922" height="30" as="alternateBounds" />
          </mxGeometry>
        </mxCell>
        <mxCell id="e5fGJ2bErtbxZkrx5kii-204" value="Name" style="shape=partialRectangle;connectable=0;fillColor=none;top=0;left=0;bottom=0;right=0;align=left;spacingLeft=6;overflow=hidden;whiteSpace=wrap;html=1;fontStyle=0;fontSize=13;" parent="e5fGJ2bErtbxZkrx5kii-202" vertex="1">
          <mxGeometry x="31.31427873883922" width="148.68572126116078" height="30" as="geometry">
            <mxRectangle width="148.68572126116078" height="30" as="alternateBounds" />
          </mxGeometry>
        </mxCell>
        <mxCell id="e5fGJ2bErtbxZkrx5kii-205" value="" style="shape=tableRow;horizontal=0;startSize=0;swimlaneHead=0;swimlaneBody=0;fillColor=none;collapsible=0;dropTarget=0;points=[[0,0.5],[1,0.5]];portConstraint=eastwest;top=0;left=0;right=0;bottom=0;" parent="e5fGJ2bErtbxZkrx5kii-198" vertex="1">
          <mxGeometry y="90" width="180" height="31" as="geometry" />
        </mxCell>
        <mxCell id="e5fGJ2bErtbxZkrx5kii-206" value="" style="shape=partialRectangle;connectable=0;fillColor=none;top=0;left=0;bottom=0;right=0;editable=1;overflow=hidden;whiteSpace=wrap;html=1;" parent="e5fGJ2bErtbxZkrx5kii-205" vertex="1">
          <mxGeometry width="31.31427873883922" height="31" as="geometry">
            <mxRectangle width="31.31427873883922" height="31" as="alternateBounds" />
          </mxGeometry>
        </mxCell>
        <mxCell id="e5fGJ2bErtbxZkrx5kii-207" value="Image" style="shape=partialRectangle;connectable=0;fillColor=none;top=0;left=0;bottom=0;right=0;align=left;spacingLeft=6;overflow=hidden;whiteSpace=wrap;html=1;fontStyle=0;fontSize=13;" parent="e5fGJ2bErtbxZkrx5kii-205" vertex="1">
          <mxGeometry x="31.31427873883922" width="148.68572126116078" height="31" as="geometry">
            <mxRectangle width="148.68572126116078" height="31" as="alternateBounds" />
          </mxGeometry>
        </mxCell>
        <mxCell id="e5fGJ2bErtbxZkrx5kii-208" value="HardDisk" style="shape=table;startSize=30;container=1;collapsible=1;childLayout=tableLayout;fixedRows=1;rowLines=0;fontStyle=1;align=center;resizeLast=1;html=1;" parent="1" vertex="1">
          <mxGeometry x="1622" y="41.870000000000005" width="180" height="121.125010172526" as="geometry" />
        </mxCell>
        <mxCell id="e5fGJ2bErtbxZkrx5kii-209" value="" style="shape=tableRow;horizontal=0;startSize=0;swimlaneHead=0;swimlaneBody=0;fillColor=none;collapsible=0;dropTarget=0;points=[[0,0.5],[1,0.5]];portConstraint=eastwest;top=0;left=0;right=0;bottom=1;" parent="e5fGJ2bErtbxZkrx5kii-208" vertex="1">
          <mxGeometry y="30" width="180" height="30" as="geometry" />
        </mxCell>
        <mxCell id="e5fGJ2bErtbxZkrx5kii-210" value="PK" style="shape=partialRectangle;connectable=0;fillColor=none;top=0;left=0;bottom=0;right=0;fontStyle=1;overflow=hidden;whiteSpace=wrap;html=1;" parent="e5fGJ2bErtbxZkrx5kii-209" vertex="1">
          <mxGeometry width="31.31427873883922" height="30" as="geometry">
            <mxRectangle width="31.31427873883922" height="30" as="alternateBounds" />
          </mxGeometry>
        </mxCell>
        <mxCell id="e5fGJ2bErtbxZkrx5kii-211" value="ID" style="shape=partialRectangle;connectable=0;fillColor=none;top=0;left=0;bottom=0;right=0;align=left;spacingLeft=6;fontStyle=5;overflow=hidden;whiteSpace=wrap;html=1;" parent="e5fGJ2bErtbxZkrx5kii-209" vertex="1">
          <mxGeometry x="31.31427873883922" width="148.68572126116078" height="30" as="geometry">
            <mxRectangle width="148.68572126116078" height="30" as="alternateBounds" />
          </mxGeometry>
        </mxCell>
        <mxCell id="e5fGJ2bErtbxZkrx5kii-212" value="" style="shape=tableRow;horizontal=0;startSize=0;swimlaneHead=0;swimlaneBody=0;fillColor=none;collapsible=0;dropTarget=0;points=[[0,0.5],[1,0.5]];portConstraint=eastwest;top=0;left=0;right=0;bottom=0;" parent="e5fGJ2bErtbxZkrx5kii-208" vertex="1">
          <mxGeometry y="60" width="180" height="30" as="geometry" />
        </mxCell>
        <mxCell id="e5fGJ2bErtbxZkrx5kii-213" value="fk" style="shape=partialRectangle;connectable=0;fillColor=none;top=0;left=0;bottom=0;right=0;editable=1;overflow=hidden;whiteSpace=wrap;html=1;" parent="e5fGJ2bErtbxZkrx5kii-212" vertex="1">
          <mxGeometry width="31.31427873883922" height="30" as="geometry">
            <mxRectangle width="31.31427873883922" height="30" as="alternateBounds" />
          </mxGeometry>
        </mxCell>
        <mxCell id="e5fGJ2bErtbxZkrx5kii-214" value="&lt;span style=&quot;font-size: 12px; font-weight: 700; text-align: center; text-wrap-mode: nowrap;&quot;&gt;HardDisk&lt;/span&gt;TypeName" style="shape=partialRectangle;connectable=0;fillColor=none;top=0;left=0;bottom=0;right=0;align=left;spacingLeft=6;overflow=hidden;whiteSpace=wrap;html=1;fontStyle=0;fontSize=13;" parent="e5fGJ2bErtbxZkrx5kii-212" vertex="1">
          <mxGeometry x="31.31427873883922" width="148.68572126116078" height="30" as="geometry">
            <mxRectangle width="148.68572126116078" height="30" as="alternateBounds" />
          </mxGeometry>
        </mxCell>
        <mxCell id="e5fGJ2bErtbxZkrx5kii-215" value="" style="shape=tableRow;horizontal=0;startSize=0;swimlaneHead=0;swimlaneBody=0;fillColor=none;collapsible=0;dropTarget=0;points=[[0,0.5],[1,0.5]];portConstraint=eastwest;top=0;left=0;right=0;bottom=0;" parent="e5fGJ2bErtbxZkrx5kii-208" vertex="1">
          <mxGeometry y="90" width="180" height="31" as="geometry" />
        </mxCell>
        <mxCell id="e5fGJ2bErtbxZkrx5kii-216" value="" style="shape=partialRectangle;connectable=0;fillColor=none;top=0;left=0;bottom=0;right=0;editable=1;overflow=hidden;whiteSpace=wrap;html=1;" parent="e5fGJ2bErtbxZkrx5kii-215" vertex="1">
          <mxGeometry width="31.31427873883922" height="31" as="geometry">
            <mxRectangle width="31.31427873883922" height="31" as="alternateBounds" />
          </mxGeometry>
        </mxCell>
        <mxCell id="e5fGJ2bErtbxZkrx5kii-217" value="Size" style="shape=partialRectangle;connectable=0;fillColor=none;top=0;left=0;bottom=0;right=0;align=left;spacingLeft=6;overflow=hidden;whiteSpace=wrap;html=1;fontStyle=0;fontSize=13;" parent="e5fGJ2bErtbxZkrx5kii-215" vertex="1">
          <mxGeometry x="31.31427873883922" width="148.68572126116078" height="31" as="geometry">
            <mxRectangle width="148.68572126116078" height="31" as="alternateBounds" />
          </mxGeometry>
        </mxCell>
        <mxCell id="e5fGJ2bErtbxZkrx5kii-242" value="Processor" style="shape=table;startSize=30;container=1;collapsible=1;childLayout=tableLayout;fixedRows=1;rowLines=0;fontStyle=1;align=center;resizeLast=1;html=1;" parent="1" vertex="1">
          <mxGeometry x="1589" y="-98" width="180" height="121.125010172526" as="geometry" />
        </mxCell>
        <mxCell id="e5fGJ2bErtbxZkrx5kii-243" value="" style="shape=tableRow;horizontal=0;startSize=0;swimlaneHead=0;swimlaneBody=0;fillColor=none;collapsible=0;dropTarget=0;points=[[0,0.5],[1,0.5]];portConstraint=eastwest;top=0;left=0;right=0;bottom=1;" parent="e5fGJ2bErtbxZkrx5kii-242" vertex="1">
          <mxGeometry y="30" width="180" height="30" as="geometry" />
        </mxCell>
        <mxCell id="e5fGJ2bErtbxZkrx5kii-244" value="PK" style="shape=partialRectangle;connectable=0;fillColor=none;top=0;left=0;bottom=0;right=0;fontStyle=1;overflow=hidden;whiteSpace=wrap;html=1;" parent="e5fGJ2bErtbxZkrx5kii-243" vertex="1">
          <mxGeometry width="31.31427873883922" height="30" as="geometry">
            <mxRectangle width="31.31427873883922" height="30" as="alternateBounds" />
          </mxGeometry>
        </mxCell>
        <mxCell id="e5fGJ2bErtbxZkrx5kii-245" value="ID" style="shape=partialRectangle;connectable=0;fillColor=none;top=0;left=0;bottom=0;right=0;align=left;spacingLeft=6;fontStyle=5;overflow=hidden;whiteSpace=wrap;html=1;" parent="e5fGJ2bErtbxZkrx5kii-243" vertex="1">
          <mxGeometry x="31.31427873883922" width="148.68572126116078" height="30" as="geometry">
            <mxRectangle width="148.68572126116078" height="30" as="alternateBounds" />
          </mxGeometry>
        </mxCell>
        <mxCell id="e5fGJ2bErtbxZkrx5kii-246" value="" style="shape=tableRow;horizontal=0;startSize=0;swimlaneHead=0;swimlaneBody=0;fillColor=none;collapsible=0;dropTarget=0;points=[[0,0.5],[1,0.5]];portConstraint=eastwest;top=0;left=0;right=0;bottom=0;" parent="e5fGJ2bErtbxZkrx5kii-242" vertex="1">
          <mxGeometry y="60" width="180" height="30" as="geometry" />
        </mxCell>
        <mxCell id="e5fGJ2bErtbxZkrx5kii-247" value="" style="shape=partialRectangle;connectable=0;fillColor=none;top=0;left=0;bottom=0;right=0;editable=1;overflow=hidden;whiteSpace=wrap;html=1;" parent="e5fGJ2bErtbxZkrx5kii-246" vertex="1">
          <mxGeometry width="31.31427873883922" height="30" as="geometry">
            <mxRectangle width="31.31427873883922" height="30" as="alternateBounds" />
          </mxGeometry>
        </mxCell>
        <mxCell id="e5fGJ2bErtbxZkrx5kii-248" value="Name" style="shape=partialRectangle;connectable=0;fillColor=none;top=0;left=0;bottom=0;right=0;align=left;spacingLeft=6;overflow=hidden;whiteSpace=wrap;html=1;fontStyle=0;fontSize=13;" parent="e5fGJ2bErtbxZkrx5kii-246" vertex="1">
          <mxGeometry x="31.31427873883922" width="148.68572126116078" height="30" as="geometry">
            <mxRectangle width="148.68572126116078" height="30" as="alternateBounds" />
          </mxGeometry>
        </mxCell>
        <mxCell id="e5fGJ2bErtbxZkrx5kii-249" value="" style="shape=tableRow;horizontal=0;startSize=0;swimlaneHead=0;swimlaneBody=0;fillColor=none;collapsible=0;dropTarget=0;points=[[0,0.5],[1,0.5]];portConstraint=eastwest;top=0;left=0;right=0;bottom=0;" parent="e5fGJ2bErtbxZkrx5kii-242" vertex="1">
          <mxGeometry y="90" width="180" height="31" as="geometry" />
        </mxCell>
        <mxCell id="e5fGJ2bErtbxZkrx5kii-250" value="" style="shape=partialRectangle;connectable=0;fillColor=none;top=0;left=0;bottom=0;right=0;editable=1;overflow=hidden;whiteSpace=wrap;html=1;" parent="e5fGJ2bErtbxZkrx5kii-249" vertex="1">
          <mxGeometry width="31.31427873883922" height="31" as="geometry">
            <mxRectangle width="31.31427873883922" height="31" as="alternateBounds" />
          </mxGeometry>
        </mxCell>
        <mxCell id="e5fGJ2bErtbxZkrx5kii-251" value="Image" style="shape=partialRectangle;connectable=0;fillColor=none;top=0;left=0;bottom=0;right=0;align=left;spacingLeft=6;overflow=hidden;whiteSpace=wrap;html=1;fontStyle=0;fontSize=13;" parent="e5fGJ2bErtbxZkrx5kii-249" vertex="1">
          <mxGeometry x="31.31427873883922" width="148.68572126116078" height="31" as="geometry">
            <mxRectangle width="148.68572126116078" height="31" as="alternateBounds" />
          </mxGeometry>
        </mxCell>
        <mxCell id="e5fGJ2bErtbxZkrx5kii-252" value="Gpu" style="shape=table;startSize=30;container=1;collapsible=1;childLayout=tableLayout;fixedRows=1;rowLines=0;fontStyle=1;align=center;resizeLast=1;html=1;" parent="1" vertex="1">
          <mxGeometry x="1692" y="-258" width="180" height="121.125010172526" as="geometry" />
        </mxCell>
        <mxCell id="e5fGJ2bErtbxZkrx5kii-253" value="" style="shape=tableRow;horizontal=0;startSize=0;swimlaneHead=0;swimlaneBody=0;fillColor=none;collapsible=0;dropTarget=0;points=[[0,0.5],[1,0.5]];portConstraint=eastwest;top=0;left=0;right=0;bottom=1;" parent="e5fGJ2bErtbxZkrx5kii-252" vertex="1">
          <mxGeometry y="30" width="180" height="30" as="geometry" />
        </mxCell>
        <mxCell id="e5fGJ2bErtbxZkrx5kii-254" value="PK" style="shape=partialRectangle;connectable=0;fillColor=none;top=0;left=0;bottom=0;right=0;fontStyle=1;overflow=hidden;whiteSpace=wrap;html=1;" parent="e5fGJ2bErtbxZkrx5kii-253" vertex="1">
          <mxGeometry width="31.31427873883922" height="30" as="geometry">
            <mxRectangle width="31.31427873883922" height="30" as="alternateBounds" />
          </mxGeometry>
        </mxCell>
        <mxCell id="e5fGJ2bErtbxZkrx5kii-255" value="ID" style="shape=partialRectangle;connectable=0;fillColor=none;top=0;left=0;bottom=0;right=0;align=left;spacingLeft=6;fontStyle=5;overflow=hidden;whiteSpace=wrap;html=1;" parent="e5fGJ2bErtbxZkrx5kii-253" vertex="1">
          <mxGeometry x="31.31427873883922" width="148.68572126116078" height="30" as="geometry">
            <mxRectangle width="148.68572126116078" height="30" as="alternateBounds" />
          </mxGeometry>
        </mxCell>
        <mxCell id="e5fGJ2bErtbxZkrx5kii-256" value="" style="shape=tableRow;horizontal=0;startSize=0;swimlaneHead=0;swimlaneBody=0;fillColor=none;collapsible=0;dropTarget=0;points=[[0,0.5],[1,0.5]];portConstraint=eastwest;top=0;left=0;right=0;bottom=0;" parent="e5fGJ2bErtbxZkrx5kii-252" vertex="1">
          <mxGeometry y="60" width="180" height="30" as="geometry" />
        </mxCell>
        <mxCell id="e5fGJ2bErtbxZkrx5kii-257" value="" style="shape=partialRectangle;connectable=0;fillColor=none;top=0;left=0;bottom=0;right=0;editable=1;overflow=hidden;whiteSpace=wrap;html=1;" parent="e5fGJ2bErtbxZkrx5kii-256" vertex="1">
          <mxGeometry width="31.31427873883922" height="30" as="geometry">
            <mxRectangle width="31.31427873883922" height="30" as="alternateBounds" />
          </mxGeometry>
        </mxCell>
        <mxCell id="e5fGJ2bErtbxZkrx5kii-258" value="Name" style="shape=partialRectangle;connectable=0;fillColor=none;top=0;left=0;bottom=0;right=0;align=left;spacingLeft=6;overflow=hidden;whiteSpace=wrap;html=1;fontStyle=0;fontSize=13;" parent="e5fGJ2bErtbxZkrx5kii-256" vertex="1">
          <mxGeometry x="31.31427873883922" width="148.68572126116078" height="30" as="geometry">
            <mxRectangle width="148.68572126116078" height="30" as="alternateBounds" />
          </mxGeometry>
        </mxCell>
        <mxCell id="e5fGJ2bErtbxZkrx5kii-259" value="" style="shape=tableRow;horizontal=0;startSize=0;swimlaneHead=0;swimlaneBody=0;fillColor=none;collapsible=0;dropTarget=0;points=[[0,0.5],[1,0.5]];portConstraint=eastwest;top=0;left=0;right=0;bottom=0;" parent="e5fGJ2bErtbxZkrx5kii-252" vertex="1">
          <mxGeometry y="90" width="180" height="31" as="geometry" />
        </mxCell>
        <mxCell id="e5fGJ2bErtbxZkrx5kii-260" value="" style="shape=partialRectangle;connectable=0;fillColor=none;top=0;left=0;bottom=0;right=0;editable=1;overflow=hidden;whiteSpace=wrap;html=1;" parent="e5fGJ2bErtbxZkrx5kii-259" vertex="1">
          <mxGeometry width="31.31427873883922" height="31" as="geometry">
            <mxRectangle width="31.31427873883922" height="31" as="alternateBounds" />
          </mxGeometry>
        </mxCell>
        <mxCell id="e5fGJ2bErtbxZkrx5kii-261" value="Image" style="shape=partialRectangle;connectable=0;fillColor=none;top=0;left=0;bottom=0;right=0;align=left;spacingLeft=6;overflow=hidden;whiteSpace=wrap;html=1;fontStyle=0;fontSize=13;" parent="e5fGJ2bErtbxZkrx5kii-259" vertex="1">
          <mxGeometry x="31.31427873883922" width="148.68572126116078" height="31" as="geometry">
            <mxRectangle width="148.68572126116078" height="31" as="alternateBounds" />
          </mxGeometry>
        </mxCell>
        <mxCell id="e5fGJ2bErtbxZkrx5kii-262" value="Ram" style="shape=table;startSize=30;container=1;collapsible=1;childLayout=tableLayout;fixedRows=1;rowLines=0;fontStyle=1;align=center;resizeLast=1;html=1;" parent="1" vertex="1">
          <mxGeometry x="1182" y="252" width="180" height="120.125010172526" as="geometry" />
        </mxCell>
        <mxCell id="e5fGJ2bErtbxZkrx5kii-263" value="" style="shape=tableRow;horizontal=0;startSize=0;swimlaneHead=0;swimlaneBody=0;fillColor=none;collapsible=0;dropTarget=0;points=[[0,0.5],[1,0.5]];portConstraint=eastwest;top=0;left=0;right=0;bottom=1;" parent="e5fGJ2bErtbxZkrx5kii-262" vertex="1">
          <mxGeometry y="30" width="180" height="30" as="geometry" />
        </mxCell>
        <mxCell id="e5fGJ2bErtbxZkrx5kii-264" value="PK" style="shape=partialRectangle;connectable=0;fillColor=none;top=0;left=0;bottom=0;right=0;fontStyle=1;overflow=hidden;whiteSpace=wrap;html=1;" parent="e5fGJ2bErtbxZkrx5kii-263" vertex="1">
          <mxGeometry width="30.45831807454408" height="30" as="geometry">
            <mxRectangle width="30.45831807454408" height="30" as="alternateBounds" />
          </mxGeometry>
        </mxCell>
        <mxCell id="e5fGJ2bErtbxZkrx5kii-265" value="ID" style="shape=partialRectangle;connectable=0;fillColor=none;top=0;left=0;bottom=0;right=0;align=left;spacingLeft=6;fontStyle=5;overflow=hidden;whiteSpace=wrap;html=1;" parent="e5fGJ2bErtbxZkrx5kii-263" vertex="1">
          <mxGeometry x="30.45831807454408" width="149.54168192545592" height="30" as="geometry">
            <mxRectangle width="149.54168192545592" height="30" as="alternateBounds" />
          </mxGeometry>
        </mxCell>
        <mxCell id="e5fGJ2bErtbxZkrx5kii-266" value="" style="shape=tableRow;horizontal=0;startSize=0;swimlaneHead=0;swimlaneBody=0;fillColor=none;collapsible=0;dropTarget=0;points=[[0,0.5],[1,0.5]];portConstraint=eastwest;top=0;left=0;right=0;bottom=0;" parent="e5fGJ2bErtbxZkrx5kii-262" vertex="1">
          <mxGeometry y="60" width="180" height="30" as="geometry" />
        </mxCell>
        <mxCell id="e5fGJ2bErtbxZkrx5kii-267" value="" style="shape=partialRectangle;connectable=0;fillColor=none;top=0;left=0;bottom=0;right=0;editable=1;overflow=hidden;whiteSpace=wrap;html=1;" parent="e5fGJ2bErtbxZkrx5kii-266" vertex="1">
          <mxGeometry width="30.45831807454408" height="30" as="geometry">
            <mxRectangle width="30.45831807454408" height="30" as="alternateBounds" />
          </mxGeometry>
        </mxCell>
        <mxCell id="e5fGJ2bErtbxZkrx5kii-268" value="Name" style="shape=partialRectangle;connectable=0;fillColor=none;top=0;left=0;bottom=0;right=0;align=left;spacingLeft=6;overflow=hidden;whiteSpace=wrap;html=1;fontStyle=0;fontSize=13;" parent="e5fGJ2bErtbxZkrx5kii-266" vertex="1">
          <mxGeometry x="30.45831807454408" width="149.54168192545592" height="30" as="geometry">
            <mxRectangle width="149.54168192545592" height="30" as="alternateBounds" />
          </mxGeometry>
        </mxCell>
        <mxCell id="e5fGJ2bErtbxZkrx5kii-282" value="" style="shape=tableRow;horizontal=0;startSize=0;swimlaneHead=0;swimlaneBody=0;fillColor=none;collapsible=0;dropTarget=0;points=[[0,0.5],[1,0.5]];portConstraint=eastwest;top=0;left=0;right=0;bottom=0;" parent="e5fGJ2bErtbxZkrx5kii-262" vertex="1">
          <mxGeometry y="90" width="180" height="30" as="geometry" />
        </mxCell>
        <mxCell id="e5fGJ2bErtbxZkrx5kii-283" value="" style="shape=partialRectangle;connectable=0;fillColor=none;top=0;left=0;bottom=0;right=0;editable=1;overflow=hidden;whiteSpace=wrap;html=1;" parent="e5fGJ2bErtbxZkrx5kii-282" vertex="1">
          <mxGeometry width="30.45831807454408" height="30" as="geometry">
            <mxRectangle width="30.45831807454408" height="30" as="alternateBounds" />
          </mxGeometry>
        </mxCell>
        <mxCell id="e5fGJ2bErtbxZkrx5kii-284" value="Size" style="shape=partialRectangle;connectable=0;fillColor=none;top=0;left=0;bottom=0;right=0;align=left;spacingLeft=6;overflow=hidden;whiteSpace=wrap;html=1;fontStyle=0;fontSize=13;" parent="e5fGJ2bErtbxZkrx5kii-282" vertex="1">
          <mxGeometry x="30.45831807454408" width="149.54168192545592" height="30" as="geometry">
            <mxRectangle width="149.54168192545592" height="30" as="alternateBounds" />
          </mxGeometry>
        </mxCell>
        <mxCell id="aOM_bBMGX3Nps75KqPNb-43" value="Supplier" style="shape=table;startSize=30;container=1;collapsible=1;childLayout=tableLayout;fixedRows=1;rowLines=0;fontStyle=1;align=center;resizeLast=1;html=1;" parent="1" vertex="1">
          <mxGeometry x="-61" y="-838" width="180" height="180" as="geometry" />
        </mxCell>
        <mxCell id="aOM_bBMGX3Nps75KqPNb-44" value="" style="shape=tableRow;horizontal=0;startSize=0;swimlaneHead=0;swimlaneBody=0;fillColor=none;collapsible=0;dropTarget=0;points=[[0,0.5],[1,0.5]];portConstraint=eastwest;top=0;left=0;right=0;bottom=1;" parent="aOM_bBMGX3Nps75KqPNb-43" vertex="1">
          <mxGeometry y="30" width="180" height="30" as="geometry" />
        </mxCell>
        <mxCell id="aOM_bBMGX3Nps75KqPNb-45" value="PK" style="shape=partialRectangle;connectable=0;fillColor=none;top=0;left=0;bottom=0;right=0;fontStyle=1;overflow=hidden;whiteSpace=wrap;html=1;" parent="aOM_bBMGX3Nps75KqPNb-44" vertex="1">
          <mxGeometry width="30" height="30" as="geometry">
            <mxRectangle width="30" height="30" as="alternateBounds" />
          </mxGeometry>
        </mxCell>
        <mxCell id="aOM_bBMGX3Nps75KqPNb-46" value="ID" style="shape=partialRectangle;connectable=0;fillColor=none;top=0;left=0;bottom=0;right=0;align=left;spacingLeft=6;fontStyle=5;overflow=hidden;whiteSpace=wrap;html=1;" parent="aOM_bBMGX3Nps75KqPNb-44" vertex="1">
          <mxGeometry x="30" width="150" height="30" as="geometry">
            <mxRectangle width="150" height="30" as="alternateBounds" />
          </mxGeometry>
        </mxCell>
        <mxCell id="aOM_bBMGX3Nps75KqPNb-47" value="" style="shape=tableRow;horizontal=0;startSize=0;swimlaneHead=0;swimlaneBody=0;fillColor=none;collapsible=0;dropTarget=0;points=[[0,0.5],[1,0.5]];portConstraint=eastwest;top=0;left=0;right=0;bottom=0;" parent="aOM_bBMGX3Nps75KqPNb-43" vertex="1">
          <mxGeometry y="60" width="180" height="30" as="geometry" />
        </mxCell>
        <mxCell id="aOM_bBMGX3Nps75KqPNb-48" value="" style="shape=partialRectangle;connectable=0;fillColor=none;top=0;left=0;bottom=0;right=0;editable=1;overflow=hidden;whiteSpace=wrap;html=1;" parent="aOM_bBMGX3Nps75KqPNb-47" vertex="1">
          <mxGeometry width="30" height="30" as="geometry">
            <mxRectangle width="30" height="30" as="alternateBounds" />
          </mxGeometry>
        </mxCell>
        <mxCell id="aOM_bBMGX3Nps75KqPNb-49" value="Name" style="shape=partialRectangle;connectable=0;fillColor=none;top=0;left=0;bottom=0;right=0;align=left;spacingLeft=6;overflow=hidden;whiteSpace=wrap;html=1;fontStyle=0;fontSize=13;" parent="aOM_bBMGX3Nps75KqPNb-47" vertex="1">
          <mxGeometry x="30" width="150" height="30" as="geometry">
            <mxRectangle width="150" height="30" as="alternateBounds" />
          </mxGeometry>
        </mxCell>
        <mxCell id="aOM_bBMGX3Nps75KqPNb-50" value="" style="shape=tableRow;horizontal=0;startSize=0;swimlaneHead=0;swimlaneBody=0;fillColor=none;collapsible=0;dropTarget=0;points=[[0,0.5],[1,0.5]];portConstraint=eastwest;top=0;left=0;right=0;bottom=0;" parent="aOM_bBMGX3Nps75KqPNb-43" vertex="1">
          <mxGeometry y="90" width="180" height="30" as="geometry" />
        </mxCell>
        <mxCell id="aOM_bBMGX3Nps75KqPNb-51" value="" style="shape=partialRectangle;connectable=0;fillColor=none;top=0;left=0;bottom=0;right=0;editable=1;overflow=hidden;whiteSpace=wrap;html=1;" parent="aOM_bBMGX3Nps75KqPNb-50" vertex="1">
          <mxGeometry width="30" height="30" as="geometry">
            <mxRectangle width="30" height="30" as="alternateBounds" />
          </mxGeometry>
        </mxCell>
        <mxCell id="aOM_bBMGX3Nps75KqPNb-52" value="Address" style="shape=partialRectangle;connectable=0;fillColor=none;top=0;left=0;bottom=0;right=0;align=left;spacingLeft=6;overflow=hidden;whiteSpace=wrap;html=1;fontStyle=0;fontSize=13;" parent="aOM_bBMGX3Nps75KqPNb-50" vertex="1">
          <mxGeometry x="30" width="150" height="30" as="geometry">
            <mxRectangle width="150" height="30" as="alternateBounds" />
          </mxGeometry>
        </mxCell>
        <mxCell id="aOM_bBMGX3Nps75KqPNb-53" value="" style="shape=tableRow;horizontal=0;startSize=0;swimlaneHead=0;swimlaneBody=0;fillColor=none;collapsible=0;dropTarget=0;points=[[0,0.5],[1,0.5]];portConstraint=eastwest;top=0;left=0;right=0;bottom=0;" parent="aOM_bBMGX3Nps75KqPNb-43" vertex="1">
          <mxGeometry y="120" width="180" height="30" as="geometry" />
        </mxCell>
        <mxCell id="aOM_bBMGX3Nps75KqPNb-54" value="" style="shape=partialRectangle;connectable=0;fillColor=none;top=0;left=0;bottom=0;right=0;editable=1;overflow=hidden;whiteSpace=wrap;html=1;" parent="aOM_bBMGX3Nps75KqPNb-53" vertex="1">
          <mxGeometry width="30" height="30" as="geometry">
            <mxRectangle width="30" height="30" as="alternateBounds" />
          </mxGeometry>
        </mxCell>
        <mxCell id="aOM_bBMGX3Nps75KqPNb-55" value="Phone" style="shape=partialRectangle;connectable=0;fillColor=none;top=0;left=0;bottom=0;right=0;align=left;spacingLeft=6;overflow=hidden;whiteSpace=wrap;html=1;fontStyle=0;fontSize=13;" parent="aOM_bBMGX3Nps75KqPNb-53" vertex="1">
          <mxGeometry x="30" width="150" height="30" as="geometry">
            <mxRectangle width="150" height="30" as="alternateBounds" />
          </mxGeometry>
        </mxCell>
        <mxCell id="aOM_bBMGX3Nps75KqPNb-56" value="" style="shape=tableRow;horizontal=0;startSize=0;swimlaneHead=0;swimlaneBody=0;fillColor=none;collapsible=0;dropTarget=0;points=[[0,0.5],[1,0.5]];portConstraint=eastwest;top=0;left=0;right=0;bottom=0;" parent="aOM_bBMGX3Nps75KqPNb-43" vertex="1">
          <mxGeometry y="150" width="180" height="30" as="geometry" />
        </mxCell>
        <mxCell id="aOM_bBMGX3Nps75KqPNb-57" value="" style="shape=partialRectangle;connectable=0;fillColor=none;top=0;left=0;bottom=0;right=0;editable=1;overflow=hidden;whiteSpace=wrap;html=1;" parent="aOM_bBMGX3Nps75KqPNb-56" vertex="1">
          <mxGeometry width="30" height="30" as="geometry">
            <mxRectangle width="30" height="30" as="alternateBounds" />
          </mxGeometry>
        </mxCell>
        <mxCell id="aOM_bBMGX3Nps75KqPNb-58" value="Image" style="shape=partialRectangle;connectable=0;fillColor=none;top=0;left=0;bottom=0;right=0;align=left;spacingLeft=6;overflow=hidden;whiteSpace=wrap;html=1;fontStyle=0;fontSize=13;" parent="aOM_bBMGX3Nps75KqPNb-56" vertex="1">
          <mxGeometry x="30" width="150" height="30" as="geometry">
            <mxRectangle width="150" height="30" as="alternateBounds" />
          </mxGeometry>
        </mxCell>
        <mxCell id="k0vDTodkq2BZZLlNwc0m-1" value="" style="edgeStyle=entityRelationEdgeStyle;fontSize=12;html=1;endArrow=ERoneToMany;startArrow=ERmandOne;rounded=0;exitX=0;exitY=0.5;exitDx=0;exitDy=0;" parent="1" source="e5fGJ2bErtbxZkrx5kii-95" target="e5fGJ2bErtbxZkrx5kii-118" edge="1">
          <mxGeometry width="100" height="100" relative="1" as="geometry">
            <mxPoint x="1079" y="-30" as="sourcePoint" />
            <mxPoint x="1179" y="-130" as="targetPoint" />
          </mxGeometry>
        </mxCell>
        <mxCell id="k0vDTodkq2BZZLlNwc0m-2" value="" style="edgeStyle=entityRelationEdgeStyle;fontSize=12;html=1;endArrow=ERoneToMany;startArrow=ERmandOne;rounded=0;" parent="1" source="e5fGJ2bErtbxZkrx5kii-118" target="e5fGJ2bErtbxZkrx5kii-137" edge="1">
          <mxGeometry width="100" height="100" relative="1" as="geometry">
            <mxPoint x="1436" y="62" as="sourcePoint" />
            <mxPoint x="1313" y="141" as="targetPoint" />
          </mxGeometry>
        </mxCell>
        <mxCell id="k0vDTodkq2BZZLlNwc0m-3" value="" style="edgeStyle=entityRelationEdgeStyle;fontSize=12;html=1;endArrow=ERoneToMany;startArrow=ERmandOne;rounded=0;" parent="1" source="e5fGJ2bErtbxZkrx5kii-177" target="e5fGJ2bErtbxZkrx5kii-149" edge="1">
          <mxGeometry width="100" height="100" relative="1" as="geometry">
            <mxPoint x="947" y="286" as="sourcePoint" />
            <mxPoint x="1207" y="522" as="targetPoint" />
          </mxGeometry>
        </mxCell>
        <mxCell id="k0vDTodkq2BZZLlNwc0m-4" value="" style="edgeStyle=entityRelationEdgeStyle;fontSize=12;html=1;endArrow=ERoneToMany;startArrow=ERmandOne;rounded=0;" parent="1" source="e5fGJ2bErtbxZkrx5kii-199" target="e5fGJ2bErtbxZkrx5kii-152" edge="1">
          <mxGeometry width="100" height="100" relative="1" as="geometry">
            <mxPoint x="1232" y="368" as="sourcePoint" />
            <mxPoint x="1290" y="633" as="targetPoint" />
          </mxGeometry>
        </mxCell>
        <mxCell id="k0vDTodkq2BZZLlNwc0m-5" value="" style="edgeStyle=entityRelationEdgeStyle;fontSize=12;html=1;endArrow=ERoneToMany;startArrow=ERmandOne;rounded=0;" parent="1" source="e5fGJ2bErtbxZkrx5kii-253" target="e5fGJ2bErtbxZkrx5kii-155" edge="1">
          <mxGeometry width="100" height="100" relative="1" as="geometry">
            <mxPoint x="1084.5" y="559" as="sourcePoint" />
            <mxPoint x="941" y="305" as="targetPoint" />
          </mxGeometry>
        </mxCell>
        <mxCell id="k0vDTodkq2BZZLlNwc0m-6" value="" style="edgeStyle=entityRelationEdgeStyle;fontSize=12;html=1;endArrow=ERoneToMany;startArrow=ERmandOne;rounded=0;exitX=0.083;exitY=-0.1;exitDx=0;exitDy=0;exitPerimeter=0;" parent="1" source="e5fGJ2bErtbxZkrx5kii-263" target="e5fGJ2bErtbxZkrx5kii-164" edge="1">
          <mxGeometry width="100" height="100" relative="1" as="geometry">
            <mxPoint x="1472" y="339" as="sourcePoint" />
            <mxPoint x="1276" y="396" as="targetPoint" />
          </mxGeometry>
        </mxCell>
        <mxCell id="k0vDTodkq2BZZLlNwc0m-7" value="" style="edgeStyle=entityRelationEdgeStyle;fontSize=12;html=1;endArrow=ERoneToMany;startArrow=ERmandOne;rounded=0;" parent="1" source="e5fGJ2bErtbxZkrx5kii-209" target="e5fGJ2bErtbxZkrx5kii-161" edge="1">
          <mxGeometry width="100" height="100" relative="1" as="geometry">
            <mxPoint x="1471" y="331" as="sourcePoint" />
            <mxPoint x="1275" y="388" as="targetPoint" />
          </mxGeometry>
        </mxCell>
        <mxCell id="k0vDTodkq2BZZLlNwc0m-8" value="" style="edgeStyle=entityRelationEdgeStyle;fontSize=12;html=1;endArrow=ERoneToMany;startArrow=ERmandOne;rounded=0;" parent="1" source="e5fGJ2bErtbxZkrx5kii-243" target="e5fGJ2bErtbxZkrx5kii-158" edge="1">
          <mxGeometry width="100" height="100" relative="1" as="geometry">
            <mxPoint x="1307.7399999999993" y="57.67000000000007" as="sourcePoint" />
            <mxPoint x="1226" y="374" as="targetPoint" />
          </mxGeometry>
        </mxCell>
        <mxCell id="k0vDTodkq2BZZLlNwc0m-11" value="" style="edgeStyle=entityRelationEdgeStyle;fontSize=12;html=1;endArrow=ERoneToMany;startArrow=ERmandOne;rounded=0;" parent="1" source="e5fGJ2bErtbxZkrx5kii-37" target="e5fGJ2bErtbxZkrx5kii-78" edge="1">
          <mxGeometry width="100" height="100" relative="1" as="geometry">
            <mxPoint x="1766" y="400" as="sourcePoint" />
            <mxPoint x="1570" y="457" as="targetPoint" />
          </mxGeometry>
        </mxCell>
        <mxCell id="k0vDTodkq2BZZLlNwc0m-13" value="" style="edgeStyle=entityRelationEdgeStyle;fontSize=12;html=1;endArrow=ERoneToMany;startArrow=ERmandOne;rounded=0;" parent="1" source="e5fGJ2bErtbxZkrx5kii-59" target="e5fGJ2bErtbxZkrx5kii-88" edge="1">
          <mxGeometry width="100" height="100" relative="1" as="geometry">
            <mxPoint x="807" y="661" as="sourcePoint" />
            <mxPoint x="611" y="718" as="targetPoint" />
          </mxGeometry>
        </mxCell>
        <mxCell id="k0vDTodkq2BZZLlNwc0m-16" value="" style="edgeStyle=entityRelationEdgeStyle;fontSize=12;html=1;endArrow=ERzeroToMany;startArrow=ERmandOne;rounded=0;" parent="1" source="e5fGJ2bErtbxZkrx5kii-37" target="e5fGJ2bErtbxZkrx5kii-5" edge="1">
          <mxGeometry width="100" height="100" relative="1" as="geometry">
            <mxPoint x="748" y="337.13" as="sourcePoint" />
            <mxPoint x="767" y="-136.87" as="targetPoint" />
          </mxGeometry>
        </mxCell>
        <mxCell id="k0vDTodkq2BZZLlNwc0m-18" value="" style="edgeStyle=entityRelationEdgeStyle;fontSize=12;html=1;endArrow=ERoneToMany;startArrow=ERmandOne;rounded=0;" parent="1" source="e5fGJ2bErtbxZkrx5kii-2" target="e5fGJ2bErtbxZkrx5kii-21" edge="1">
          <mxGeometry width="100" height="100" relative="1" as="geometry">
            <mxPoint x="386" y="294" as="sourcePoint" />
            <mxPoint x="444" y="226" as="targetPoint" />
          </mxGeometry>
        </mxCell>
        <mxCell id="k0vDTodkq2BZZLlNwc0m-22" value="SalesInvoice" style="shape=table;startSize=30;container=1;collapsible=1;childLayout=tableLayout;fixedRows=1;rowLines=0;fontStyle=1;align=center;resizeLast=1;html=1;" parent="1" vertex="1">
          <mxGeometry x="-31" y="-266" width="180" height="208" as="geometry" />
        </mxCell>
        <mxCell id="k0vDTodkq2BZZLlNwc0m-23" value="" style="shape=tableRow;horizontal=0;startSize=0;swimlaneHead=0;swimlaneBody=0;fillColor=none;collapsible=0;dropTarget=0;points=[[0,0.5],[1,0.5]];portConstraint=eastwest;top=0;left=0;right=0;bottom=1;" parent="k0vDTodkq2BZZLlNwc0m-22" vertex="1">
          <mxGeometry y="30" width="180" height="30" as="geometry" />
        </mxCell>
        <mxCell id="k0vDTodkq2BZZLlNwc0m-24" value="PK" style="shape=partialRectangle;connectable=0;fillColor=none;top=0;left=0;bottom=0;right=0;fontStyle=1;overflow=hidden;whiteSpace=wrap;html=1;" parent="k0vDTodkq2BZZLlNwc0m-23" vertex="1">
          <mxGeometry width="30.040014648437364" height="30" as="geometry">
            <mxRectangle width="30.040014648437364" height="30" as="alternateBounds" />
          </mxGeometry>
        </mxCell>
        <mxCell id="k0vDTodkq2BZZLlNwc0m-25" value="ID" style="shape=partialRectangle;connectable=0;fillColor=none;top=0;left=0;bottom=0;right=0;align=left;spacingLeft=6;fontStyle=5;overflow=hidden;whiteSpace=wrap;html=1;" parent="k0vDTodkq2BZZLlNwc0m-23" vertex="1">
          <mxGeometry x="30.040014648437364" width="149.95998535156264" height="30" as="geometry">
            <mxRectangle width="149.95998535156264" height="30" as="alternateBounds" />
          </mxGeometry>
        </mxCell>
        <mxCell id="k0vDTodkq2BZZLlNwc0m-26" value="" style="shape=tableRow;horizontal=0;startSize=0;swimlaneHead=0;swimlaneBody=0;fillColor=none;collapsible=0;dropTarget=0;points=[[0,0.5],[1,0.5]];portConstraint=eastwest;top=0;left=0;right=0;bottom=0;" parent="k0vDTodkq2BZZLlNwc0m-22" vertex="1">
          <mxGeometry y="60" width="180" height="30" as="geometry" />
        </mxCell>
        <mxCell id="k0vDTodkq2BZZLlNwc0m-27" value="fk" style="shape=partialRectangle;connectable=0;fillColor=none;top=0;left=0;bottom=0;right=0;editable=1;overflow=hidden;whiteSpace=wrap;html=1;" parent="k0vDTodkq2BZZLlNwc0m-26" vertex="1">
          <mxGeometry width="30.040014648437364" height="30" as="geometry">
            <mxRectangle width="30.040014648437364" height="30" as="alternateBounds" />
          </mxGeometry>
        </mxCell>
        <mxCell id="k0vDTodkq2BZZLlNwc0m-28" value="OrderId" style="shape=partialRectangle;connectable=0;fillColor=none;top=0;left=0;bottom=0;right=0;align=left;spacingLeft=6;overflow=hidden;whiteSpace=wrap;html=1;fontStyle=0;fontSize=13;" parent="k0vDTodkq2BZZLlNwc0m-26" vertex="1">
          <mxGeometry x="30.040014648437364" width="149.95998535156264" height="30" as="geometry">
            <mxRectangle width="149.95998535156264" height="30" as="alternateBounds" />
          </mxGeometry>
        </mxCell>
        <mxCell id="k0vDTodkq2BZZLlNwc0m-29" value="" style="shape=tableRow;horizontal=0;startSize=0;swimlaneHead=0;swimlaneBody=0;fillColor=none;collapsible=0;dropTarget=0;points=[[0,0.5],[1,0.5]];portConstraint=eastwest;top=0;left=0;right=0;bottom=0;" parent="k0vDTodkq2BZZLlNwc0m-22" vertex="1">
          <mxGeometry y="90" width="180" height="28" as="geometry" />
        </mxCell>
        <mxCell id="k0vDTodkq2BZZLlNwc0m-30" value="fk" style="shape=partialRectangle;connectable=0;fillColor=none;top=0;left=0;bottom=0;right=0;editable=1;overflow=hidden;whiteSpace=wrap;html=1;" parent="k0vDTodkq2BZZLlNwc0m-29" vertex="1">
          <mxGeometry width="30.040014648437364" height="28" as="geometry">
            <mxRectangle width="30.040014648437364" height="28" as="alternateBounds" />
          </mxGeometry>
        </mxCell>
        <mxCell id="k0vDTodkq2BZZLlNwc0m-31" value="DeliveryManId" style="shape=partialRectangle;connectable=0;fillColor=none;top=0;left=0;bottom=0;right=0;align=left;spacingLeft=6;overflow=hidden;whiteSpace=wrap;html=1;fontSize=13;" parent="k0vDTodkq2BZZLlNwc0m-29" vertex="1">
          <mxGeometry x="30.040014648437364" width="149.95998535156264" height="28" as="geometry">
            <mxRectangle width="149.95998535156264" height="28" as="alternateBounds" />
          </mxGeometry>
        </mxCell>
        <mxCell id="k0vDTodkq2BZZLlNwc0m-32" value="" style="shape=tableRow;horizontal=0;startSize=0;swimlaneHead=0;swimlaneBody=0;fillColor=none;collapsible=0;dropTarget=0;points=[[0,0.5],[1,0.5]];portConstraint=eastwest;top=0;left=0;right=0;bottom=0;" parent="k0vDTodkq2BZZLlNwc0m-22" vertex="1">
          <mxGeometry y="118" width="180" height="30" as="geometry" />
        </mxCell>
        <mxCell id="k0vDTodkq2BZZLlNwc0m-33" value="" style="shape=partialRectangle;connectable=0;fillColor=none;top=0;left=0;bottom=0;right=0;editable=1;overflow=hidden;whiteSpace=wrap;html=1;" parent="k0vDTodkq2BZZLlNwc0m-32" vertex="1">
          <mxGeometry width="30.040014648437364" height="30" as="geometry">
            <mxRectangle width="30.040014648437364" height="30" as="alternateBounds" />
          </mxGeometry>
        </mxCell>
        <mxCell id="k0vDTodkq2BZZLlNwc0m-34" value="InvoiceDate" style="shape=partialRectangle;connectable=0;fillColor=none;top=0;left=0;bottom=0;right=0;align=left;spacingLeft=6;overflow=hidden;whiteSpace=wrap;html=1;fontSize=13;" parent="k0vDTodkq2BZZLlNwc0m-32" vertex="1">
          <mxGeometry x="30.040014648437364" width="149.95998535156264" height="30" as="geometry">
            <mxRectangle width="149.95998535156264" height="30" as="alternateBounds" />
          </mxGeometry>
        </mxCell>
        <mxCell id="k0vDTodkq2BZZLlNwc0m-35" value="" style="shape=tableRow;horizontal=0;startSize=0;swimlaneHead=0;swimlaneBody=0;fillColor=none;collapsible=0;dropTarget=0;points=[[0,0.5],[1,0.5]];portConstraint=eastwest;top=0;left=0;right=0;bottom=0;" parent="k0vDTodkq2BZZLlNwc0m-22" vertex="1">
          <mxGeometry y="148" width="180" height="30" as="geometry" />
        </mxCell>
        <mxCell id="k0vDTodkq2BZZLlNwc0m-36" value="" style="shape=partialRectangle;connectable=0;fillColor=none;top=0;left=0;bottom=0;right=0;editable=1;overflow=hidden;whiteSpace=wrap;html=1;" parent="k0vDTodkq2BZZLlNwc0m-35" vertex="1">
          <mxGeometry width="30.040014648437364" height="30" as="geometry">
            <mxRectangle width="30.040014648437364" height="30" as="alternateBounds" />
          </mxGeometry>
        </mxCell>
        <mxCell id="k0vDTodkq2BZZLlNwc0m-37" value="DeliveryDate" style="shape=partialRectangle;connectable=0;fillColor=none;top=0;left=0;bottom=0;right=0;align=left;spacingLeft=6;overflow=hidden;whiteSpace=wrap;html=1;fontSize=13;" parent="k0vDTodkq2BZZLlNwc0m-35" vertex="1">
          <mxGeometry x="30.040014648437364" width="149.95998535156264" height="30" as="geometry">
            <mxRectangle width="149.95998535156264" height="30" as="alternateBounds" />
          </mxGeometry>
        </mxCell>
        <mxCell id="k0vDTodkq2BZZLlNwc0m-38" value="" style="shape=tableRow;horizontal=0;startSize=0;swimlaneHead=0;swimlaneBody=0;fillColor=none;collapsible=0;dropTarget=0;points=[[0,0.5],[1,0.5]];portConstraint=eastwest;top=0;left=0;right=0;bottom=0;" parent="k0vDTodkq2BZZLlNwc0m-22" vertex="1">
          <mxGeometry y="178" width="180" height="30" as="geometry" />
        </mxCell>
        <mxCell id="k0vDTodkq2BZZLlNwc0m-39" value="" style="shape=partialRectangle;connectable=0;fillColor=none;top=0;left=0;bottom=0;right=0;editable=1;overflow=hidden;whiteSpace=wrap;html=1;" parent="k0vDTodkq2BZZLlNwc0m-38" vertex="1">
          <mxGeometry width="30.040014648437364" height="30" as="geometry">
            <mxRectangle width="30.040014648437364" height="30" as="alternateBounds" />
          </mxGeometry>
        </mxCell>
        <mxCell id="k0vDTodkq2BZZLlNwc0m-40" value="Notes" style="shape=partialRectangle;connectable=0;fillColor=none;top=0;left=0;bottom=0;right=0;align=left;spacingLeft=6;overflow=hidden;whiteSpace=wrap;html=1;fontSize=13;" parent="k0vDTodkq2BZZLlNwc0m-38" vertex="1">
          <mxGeometry x="30.040014648437364" width="149.95998535156264" height="30" as="geometry">
            <mxRectangle width="149.95998535156264" height="30" as="alternateBounds" />
          </mxGeometry>
        </mxCell>
        <mxCell id="k0vDTodkq2BZZLlNwc0m-41" value="DielevryMan" style="shape=table;startSize=30;container=1;collapsible=1;childLayout=tableLayout;fixedRows=1;rowLines=0;fontStyle=1;align=center;resizeLast=1;html=1;" parent="1" vertex="1">
          <mxGeometry x="54" y="-566" width="180" height="120" as="geometry" />
        </mxCell>
        <mxCell id="k0vDTodkq2BZZLlNwc0m-42" value="" style="shape=tableRow;horizontal=0;startSize=0;swimlaneHead=0;swimlaneBody=0;fillColor=none;collapsible=0;dropTarget=0;points=[[0,0.5],[1,0.5]];portConstraint=eastwest;top=0;left=0;right=0;bottom=1;" parent="k0vDTodkq2BZZLlNwc0m-41" vertex="1">
          <mxGeometry y="30" width="180" height="30" as="geometry" />
        </mxCell>
        <mxCell id="k0vDTodkq2BZZLlNwc0m-43" value="PK" style="shape=partialRectangle;connectable=0;fillColor=none;top=0;left=0;bottom=0;right=0;fontStyle=1;overflow=hidden;whiteSpace=wrap;html=1;" parent="k0vDTodkq2BZZLlNwc0m-42" vertex="1">
          <mxGeometry width="30" height="30" as="geometry">
            <mxRectangle width="30" height="30" as="alternateBounds" />
          </mxGeometry>
        </mxCell>
        <mxCell id="k0vDTodkq2BZZLlNwc0m-44" value="ID" style="shape=partialRectangle;connectable=0;fillColor=none;top=0;left=0;bottom=0;right=0;align=left;spacingLeft=6;fontStyle=5;overflow=hidden;whiteSpace=wrap;html=1;" parent="k0vDTodkq2BZZLlNwc0m-42" vertex="1">
          <mxGeometry x="30" width="150" height="30" as="geometry">
            <mxRectangle width="150" height="30" as="alternateBounds" />
          </mxGeometry>
        </mxCell>
        <mxCell id="k0vDTodkq2BZZLlNwc0m-45" value="" style="shape=tableRow;horizontal=0;startSize=0;swimlaneHead=0;swimlaneBody=0;fillColor=none;collapsible=0;dropTarget=0;points=[[0,0.5],[1,0.5]];portConstraint=eastwest;top=0;left=0;right=0;bottom=0;" parent="k0vDTodkq2BZZLlNwc0m-41" vertex="1">
          <mxGeometry y="60" width="180" height="30" as="geometry" />
        </mxCell>
        <mxCell id="k0vDTodkq2BZZLlNwc0m-46" value="" style="shape=partialRectangle;connectable=0;fillColor=none;top=0;left=0;bottom=0;right=0;editable=1;overflow=hidden;whiteSpace=wrap;html=1;" parent="k0vDTodkq2BZZLlNwc0m-45" vertex="1">
          <mxGeometry width="30" height="30" as="geometry">
            <mxRectangle width="30" height="30" as="alternateBounds" />
          </mxGeometry>
        </mxCell>
        <mxCell id="k0vDTodkq2BZZLlNwc0m-47" value="Name" style="shape=partialRectangle;connectable=0;fillColor=none;top=0;left=0;bottom=0;right=0;align=left;spacingLeft=6;overflow=hidden;whiteSpace=wrap;html=1;fontStyle=0;fontSize=13;" parent="k0vDTodkq2BZZLlNwc0m-45" vertex="1">
          <mxGeometry x="30" width="150" height="30" as="geometry">
            <mxRectangle width="150" height="30" as="alternateBounds" />
          </mxGeometry>
        </mxCell>
        <mxCell id="k0vDTodkq2BZZLlNwc0m-48" value="" style="shape=tableRow;horizontal=0;startSize=0;swimlaneHead=0;swimlaneBody=0;fillColor=none;collapsible=0;dropTarget=0;points=[[0,0.5],[1,0.5]];portConstraint=eastwest;top=0;left=0;right=0;bottom=0;" parent="k0vDTodkq2BZZLlNwc0m-41" vertex="1">
          <mxGeometry y="90" width="180" height="30" as="geometry" />
        </mxCell>
        <mxCell id="k0vDTodkq2BZZLlNwc0m-49" value="" style="shape=partialRectangle;connectable=0;fillColor=none;top=0;left=0;bottom=0;right=0;editable=1;overflow=hidden;whiteSpace=wrap;html=1;" parent="k0vDTodkq2BZZLlNwc0m-48" vertex="1">
          <mxGeometry width="30" height="30" as="geometry">
            <mxRectangle width="30" height="30" as="alternateBounds" />
          </mxGeometry>
        </mxCell>
        <mxCell id="k0vDTodkq2BZZLlNwc0m-50" value="Image" style="shape=partialRectangle;connectable=0;fillColor=none;top=0;left=0;bottom=0;right=0;align=left;spacingLeft=6;overflow=hidden;whiteSpace=wrap;html=1;fontStyle=0;fontSize=13;" parent="k0vDTodkq2BZZLlNwc0m-48" vertex="1">
          <mxGeometry x="30" width="150" height="30" as="geometry">
            <mxRectangle width="150" height="30" as="alternateBounds" />
          </mxGeometry>
        </mxCell>
        <mxCell id="k0vDTodkq2BZZLlNwc0m-51" value="PurchaseInvoice" style="shape=table;startSize=30;container=1;collapsible=1;childLayout=tableLayout;fixedRows=1;rowLines=0;fontStyle=1;align=center;resizeLast=1;html=1;" parent="1" vertex="1">
          <mxGeometry x="324" y="-755" width="180" height="178" as="geometry" />
        </mxCell>
        <mxCell id="k0vDTodkq2BZZLlNwc0m-52" value="" style="shape=tableRow;horizontal=0;startSize=0;swimlaneHead=0;swimlaneBody=0;fillColor=none;collapsible=0;dropTarget=0;points=[[0,0.5],[1,0.5]];portConstraint=eastwest;top=0;left=0;right=0;bottom=1;" parent="k0vDTodkq2BZZLlNwc0m-51" vertex="1">
          <mxGeometry y="30" width="180" height="30" as="geometry" />
        </mxCell>
        <mxCell id="k0vDTodkq2BZZLlNwc0m-53" value="PK" style="shape=partialRectangle;connectable=0;fillColor=none;top=0;left=0;bottom=0;right=0;fontStyle=1;overflow=hidden;whiteSpace=wrap;html=1;" parent="k0vDTodkq2BZZLlNwc0m-52" vertex="1">
          <mxGeometry width="33.749969482421875" height="30" as="geometry">
            <mxRectangle width="33.749969482421875" height="30" as="alternateBounds" />
          </mxGeometry>
        </mxCell>
        <mxCell id="k0vDTodkq2BZZLlNwc0m-54" value="ID" style="shape=partialRectangle;connectable=0;fillColor=none;top=0;left=0;bottom=0;right=0;align=left;spacingLeft=6;fontStyle=5;overflow=hidden;whiteSpace=wrap;html=1;" parent="k0vDTodkq2BZZLlNwc0m-52" vertex="1">
          <mxGeometry x="33.749969482421875" width="146.25003051757812" height="30" as="geometry">
            <mxRectangle width="146.25003051757812" height="30" as="alternateBounds" />
          </mxGeometry>
        </mxCell>
        <mxCell id="k0vDTodkq2BZZLlNwc0m-55" value="" style="shape=tableRow;horizontal=0;startSize=0;swimlaneHead=0;swimlaneBody=0;fillColor=none;collapsible=0;dropTarget=0;points=[[0,0.5],[1,0.5]];portConstraint=eastwest;top=0;left=0;right=0;bottom=0;" parent="k0vDTodkq2BZZLlNwc0m-51" vertex="1">
          <mxGeometry y="60" width="180" height="30" as="geometry" />
        </mxCell>
        <mxCell id="k0vDTodkq2BZZLlNwc0m-56" value="fk" style="shape=partialRectangle;connectable=0;fillColor=none;top=0;left=0;bottom=0;right=0;editable=1;overflow=hidden;whiteSpace=wrap;html=1;" parent="k0vDTodkq2BZZLlNwc0m-55" vertex="1">
          <mxGeometry width="33.749969482421875" height="30" as="geometry">
            <mxRectangle width="33.749969482421875" height="30" as="alternateBounds" />
          </mxGeometry>
        </mxCell>
        <mxCell id="k0vDTodkq2BZZLlNwc0m-57" value="SupplierId" style="shape=partialRectangle;connectable=0;fillColor=none;top=0;left=0;bottom=0;right=0;align=left;spacingLeft=6;overflow=hidden;whiteSpace=wrap;html=1;fontStyle=0;fontSize=13;" parent="k0vDTodkq2BZZLlNwc0m-55" vertex="1">
          <mxGeometry x="33.749969482421875" width="146.25003051757812" height="30" as="geometry">
            <mxRectangle width="146.25003051757812" height="30" as="alternateBounds" />
          </mxGeometry>
        </mxCell>
        <mxCell id="k0vDTodkq2BZZLlNwc0m-58" value="" style="shape=tableRow;horizontal=0;startSize=0;swimlaneHead=0;swimlaneBody=0;fillColor=none;collapsible=0;dropTarget=0;points=[[0,0.5],[1,0.5]];portConstraint=eastwest;top=0;left=0;right=0;bottom=0;" parent="k0vDTodkq2BZZLlNwc0m-51" vertex="1">
          <mxGeometry y="90" width="180" height="28" as="geometry" />
        </mxCell>
        <mxCell id="k0vDTodkq2BZZLlNwc0m-59" value="" style="shape=partialRectangle;connectable=0;fillColor=none;top=0;left=0;bottom=0;right=0;editable=1;overflow=hidden;whiteSpace=wrap;html=1;" parent="k0vDTodkq2BZZLlNwc0m-58" vertex="1">
          <mxGeometry width="33.749969482421875" height="28" as="geometry">
            <mxRectangle width="33.749969482421875" height="28" as="alternateBounds" />
          </mxGeometry>
        </mxCell>
        <mxCell id="k0vDTodkq2BZZLlNwc0m-60" value="InvoceDate" style="shape=partialRectangle;connectable=0;fillColor=none;top=0;left=0;bottom=0;right=0;align=left;spacingLeft=6;overflow=hidden;whiteSpace=wrap;html=1;fontSize=13;" parent="k0vDTodkq2BZZLlNwc0m-58" vertex="1">
          <mxGeometry x="33.749969482421875" width="146.25003051757812" height="28" as="geometry">
            <mxRectangle width="146.25003051757812" height="28" as="alternateBounds" />
          </mxGeometry>
        </mxCell>
        <mxCell id="k0vDTodkq2BZZLlNwc0m-61" value="" style="shape=tableRow;horizontal=0;startSize=0;swimlaneHead=0;swimlaneBody=0;fillColor=none;collapsible=0;dropTarget=0;points=[[0,0.5],[1,0.5]];portConstraint=eastwest;top=0;left=0;right=0;bottom=0;" parent="k0vDTodkq2BZZLlNwc0m-51" vertex="1">
          <mxGeometry y="118" width="180" height="30" as="geometry" />
        </mxCell>
        <mxCell id="k0vDTodkq2BZZLlNwc0m-62" value="" style="shape=partialRectangle;connectable=0;fillColor=none;top=0;left=0;bottom=0;right=0;editable=1;overflow=hidden;whiteSpace=wrap;html=1;" parent="k0vDTodkq2BZZLlNwc0m-61" vertex="1">
          <mxGeometry width="33.749969482421875" height="30" as="geometry">
            <mxRectangle width="33.749969482421875" height="30" as="alternateBounds" />
          </mxGeometry>
        </mxCell>
        <mxCell id="k0vDTodkq2BZZLlNwc0m-63" value="DieleveyDate" style="shape=partialRectangle;connectable=0;fillColor=none;top=0;left=0;bottom=0;right=0;align=left;spacingLeft=6;overflow=hidden;whiteSpace=wrap;html=1;fontSize=13;" parent="k0vDTodkq2BZZLlNwc0m-61" vertex="1">
          <mxGeometry x="33.749969482421875" width="146.25003051757812" height="30" as="geometry">
            <mxRectangle width="146.25003051757812" height="30" as="alternateBounds" />
          </mxGeometry>
        </mxCell>
        <mxCell id="k0vDTodkq2BZZLlNwc0m-64" value="" style="shape=tableRow;horizontal=0;startSize=0;swimlaneHead=0;swimlaneBody=0;fillColor=none;collapsible=0;dropTarget=0;points=[[0,0.5],[1,0.5]];portConstraint=eastwest;top=0;left=0;right=0;bottom=0;" parent="k0vDTodkq2BZZLlNwc0m-51" vertex="1">
          <mxGeometry y="148" width="180" height="30" as="geometry" />
        </mxCell>
        <mxCell id="k0vDTodkq2BZZLlNwc0m-65" value="" style="shape=partialRectangle;connectable=0;fillColor=none;top=0;left=0;bottom=0;right=0;editable=1;overflow=hidden;whiteSpace=wrap;html=1;" parent="k0vDTodkq2BZZLlNwc0m-64" vertex="1">
          <mxGeometry width="33.749969482421875" height="30" as="geometry">
            <mxRectangle width="33.749969482421875" height="30" as="alternateBounds" />
          </mxGeometry>
        </mxCell>
        <mxCell id="k0vDTodkq2BZZLlNwc0m-66" value="Notes" style="shape=partialRectangle;connectable=0;fillColor=none;top=0;left=0;bottom=0;right=0;align=left;spacingLeft=6;overflow=hidden;whiteSpace=wrap;html=1;fontSize=13;" parent="k0vDTodkq2BZZLlNwc0m-64" vertex="1">
          <mxGeometry x="33.749969482421875" width="146.25003051757812" height="30" as="geometry">
            <mxRectangle width="146.25003051757812" height="30" as="alternateBounds" />
          </mxGeometry>
        </mxCell>
        <mxCell id="k0vDTodkq2BZZLlNwc0m-67" value="PurchaceInvoceItems" style="shape=table;startSize=30;container=1;collapsible=1;childLayout=tableLayout;fixedRows=1;rowLines=0;fontStyle=1;align=center;resizeLast=1;html=1;" parent="1" vertex="1">
          <mxGeometry x="642" y="-624" width="180" height="180" as="geometry" />
        </mxCell>
        <mxCell id="k0vDTodkq2BZZLlNwc0m-68" value="" style="shape=tableRow;horizontal=0;startSize=0;swimlaneHead=0;swimlaneBody=0;fillColor=none;collapsible=0;dropTarget=0;points=[[0,0.5],[1,0.5]];portConstraint=eastwest;top=0;left=0;right=0;bottom=1;" parent="k0vDTodkq2BZZLlNwc0m-67" vertex="1">
          <mxGeometry y="30" width="180" height="30" as="geometry" />
        </mxCell>
        <mxCell id="k0vDTodkq2BZZLlNwc0m-69" value="PK" style="shape=partialRectangle;connectable=0;fillColor=none;top=0;left=0;bottom=0;right=0;fontStyle=1;overflow=hidden;whiteSpace=wrap;html=1;" parent="k0vDTodkq2BZZLlNwc0m-68" vertex="1">
          <mxGeometry width="30" height="30" as="geometry">
            <mxRectangle width="30" height="30" as="alternateBounds" />
          </mxGeometry>
        </mxCell>
        <mxCell id="k0vDTodkq2BZZLlNwc0m-70" value="ID" style="shape=partialRectangle;connectable=0;fillColor=none;top=0;left=0;bottom=0;right=0;align=left;spacingLeft=6;fontStyle=5;overflow=hidden;whiteSpace=wrap;html=1;" parent="k0vDTodkq2BZZLlNwc0m-68" vertex="1">
          <mxGeometry x="30" width="150" height="30" as="geometry">
            <mxRectangle width="150" height="30" as="alternateBounds" />
          </mxGeometry>
        </mxCell>
        <mxCell id="k0vDTodkq2BZZLlNwc0m-71" value="" style="shape=tableRow;horizontal=0;startSize=0;swimlaneHead=0;swimlaneBody=0;fillColor=none;collapsible=0;dropTarget=0;points=[[0,0.5],[1,0.5]];portConstraint=eastwest;top=0;left=0;right=0;bottom=0;" parent="k0vDTodkq2BZZLlNwc0m-67" vertex="1">
          <mxGeometry y="60" width="180" height="30" as="geometry" />
        </mxCell>
        <mxCell id="k0vDTodkq2BZZLlNwc0m-72" value="" style="shape=partialRectangle;connectable=0;fillColor=none;top=0;left=0;bottom=0;right=0;editable=1;overflow=hidden;whiteSpace=wrap;html=1;" parent="k0vDTodkq2BZZLlNwc0m-71" vertex="1">
          <mxGeometry width="30" height="30" as="geometry">
            <mxRectangle width="30" height="30" as="alternateBounds" />
          </mxGeometry>
        </mxCell>
        <mxCell id="k0vDTodkq2BZZLlNwc0m-73" value="PurchaseInvoiceId" style="shape=partialRectangle;connectable=0;fillColor=none;top=0;left=0;bottom=0;right=0;align=left;spacingLeft=6;overflow=hidden;whiteSpace=wrap;html=1;fontStyle=0;fontSize=13;" parent="k0vDTodkq2BZZLlNwc0m-71" vertex="1">
          <mxGeometry x="30" width="150" height="30" as="geometry">
            <mxRectangle width="150" height="30" as="alternateBounds" />
          </mxGeometry>
        </mxCell>
        <mxCell id="k0vDTodkq2BZZLlNwc0m-74" value="" style="shape=tableRow;horizontal=0;startSize=0;swimlaneHead=0;swimlaneBody=0;fillColor=none;collapsible=0;dropTarget=0;points=[[0,0.5],[1,0.5]];portConstraint=eastwest;top=0;left=0;right=0;bottom=0;" parent="k0vDTodkq2BZZLlNwc0m-67" vertex="1">
          <mxGeometry y="90" width="180" height="30" as="geometry" />
        </mxCell>
        <mxCell id="k0vDTodkq2BZZLlNwc0m-75" value="" style="shape=partialRectangle;connectable=0;fillColor=none;top=0;left=0;bottom=0;right=0;editable=1;overflow=hidden;whiteSpace=wrap;html=1;" parent="k0vDTodkq2BZZLlNwc0m-74" vertex="1">
          <mxGeometry width="30" height="30" as="geometry">
            <mxRectangle width="30" height="30" as="alternateBounds" />
          </mxGeometry>
        </mxCell>
        <mxCell id="k0vDTodkq2BZZLlNwc0m-76" value="ItemId" style="shape=partialRectangle;connectable=0;fillColor=none;top=0;left=0;bottom=0;right=0;align=left;spacingLeft=6;overflow=hidden;whiteSpace=wrap;html=1;fontStyle=0;fontSize=13;" parent="k0vDTodkq2BZZLlNwc0m-74" vertex="1">
          <mxGeometry x="30" width="150" height="30" as="geometry">
            <mxRectangle width="150" height="30" as="alternateBounds" />
          </mxGeometry>
        </mxCell>
        <mxCell id="k0vDTodkq2BZZLlNwc0m-77" value="" style="shape=tableRow;horizontal=0;startSize=0;swimlaneHead=0;swimlaneBody=0;fillColor=none;collapsible=0;dropTarget=0;points=[[0,0.5],[1,0.5]];portConstraint=eastwest;top=0;left=0;right=0;bottom=0;" parent="k0vDTodkq2BZZLlNwc0m-67" vertex="1">
          <mxGeometry y="120" width="180" height="30" as="geometry" />
        </mxCell>
        <mxCell id="k0vDTodkq2BZZLlNwc0m-78" value="" style="shape=partialRectangle;connectable=0;fillColor=none;top=0;left=0;bottom=0;right=0;editable=1;overflow=hidden;whiteSpace=wrap;html=1;" parent="k0vDTodkq2BZZLlNwc0m-77" vertex="1">
          <mxGeometry width="30" height="30" as="geometry">
            <mxRectangle width="30" height="30" as="alternateBounds" />
          </mxGeometry>
        </mxCell>
        <mxCell id="k0vDTodkq2BZZLlNwc0m-79" value="Qty" style="shape=partialRectangle;connectable=0;fillColor=none;top=0;left=0;bottom=0;right=0;align=left;spacingLeft=6;overflow=hidden;whiteSpace=wrap;html=1;fontStyle=0;fontSize=13;" parent="k0vDTodkq2BZZLlNwc0m-77" vertex="1">
          <mxGeometry x="30" width="150" height="30" as="geometry">
            <mxRectangle width="150" height="30" as="alternateBounds" />
          </mxGeometry>
        </mxCell>
        <mxCell id="k0vDTodkq2BZZLlNwc0m-80" value="" style="shape=tableRow;horizontal=0;startSize=0;swimlaneHead=0;swimlaneBody=0;fillColor=none;collapsible=0;dropTarget=0;points=[[0,0.5],[1,0.5]];portConstraint=eastwest;top=0;left=0;right=0;bottom=0;" parent="k0vDTodkq2BZZLlNwc0m-67" vertex="1">
          <mxGeometry y="150" width="180" height="30" as="geometry" />
        </mxCell>
        <mxCell id="k0vDTodkq2BZZLlNwc0m-81" value="" style="shape=partialRectangle;connectable=0;fillColor=none;top=0;left=0;bottom=0;right=0;editable=1;overflow=hidden;whiteSpace=wrap;html=1;" parent="k0vDTodkq2BZZLlNwc0m-80" vertex="1">
          <mxGeometry width="30" height="30" as="geometry">
            <mxRectangle width="30" height="30" as="alternateBounds" />
          </mxGeometry>
        </mxCell>
        <mxCell id="k0vDTodkq2BZZLlNwc0m-82" value="PurchasePrice" style="shape=partialRectangle;connectable=0;fillColor=none;top=0;left=0;bottom=0;right=0;align=left;spacingLeft=6;overflow=hidden;whiteSpace=wrap;html=1;fontStyle=0;fontSize=13;" parent="k0vDTodkq2BZZLlNwc0m-80" vertex="1">
          <mxGeometry x="30" width="150" height="30" as="geometry">
            <mxRectangle width="150" height="30" as="alternateBounds" />
          </mxGeometry>
        </mxCell>
        <mxCell id="k0vDTodkq2BZZLlNwc0m-83" value="" style="edgeStyle=entityRelationEdgeStyle;fontSize=12;html=1;endArrow=ERoneToMany;startArrow=ERmandOne;rounded=0;" parent="1" source="e5fGJ2bErtbxZkrx5kii-2" target="k0vDTodkq2BZZLlNwc0m-26" edge="1">
          <mxGeometry width="100" height="100" relative="1" as="geometry">
            <mxPoint x="-209" y="-144" as="sourcePoint" />
            <mxPoint x="-269" y="215" as="targetPoint" />
          </mxGeometry>
        </mxCell>
        <mxCell id="k0vDTodkq2BZZLlNwc0m-85" value="" style="edgeStyle=entityRelationEdgeStyle;fontSize=12;html=1;endArrow=ERoneToMany;startArrow=ERmandOne;rounded=0;" parent="1" source="k0vDTodkq2BZZLlNwc0m-42" target="k0vDTodkq2BZZLlNwc0m-29" edge="1">
          <mxGeometry width="100" height="100" relative="1" as="geometry">
            <mxPoint x="286" y="-334" as="sourcePoint" />
            <mxPoint x="226" y="25" as="targetPoint" />
          </mxGeometry>
        </mxCell>
        <mxCell id="k0vDTodkq2BZZLlNwc0m-88" value="" style="edgeStyle=entityRelationEdgeStyle;fontSize=12;html=1;endArrow=ERzeroToMany;startArrow=ERmandOne;rounded=0;" parent="1" source="e5fGJ2bErtbxZkrx5kii-118" target="e5fGJ2bErtbxZkrx5kii-24" edge="1">
          <mxGeometry width="100" height="100" relative="1" as="geometry">
            <mxPoint x="468" y="252" as="sourcePoint" />
            <mxPoint x="479" y="-205" as="targetPoint" />
          </mxGeometry>
        </mxCell>
        <mxCell id="k0vDTodkq2BZZLlNwc0m-89" value="" style="edgeStyle=entityRelationEdgeStyle;fontSize=12;html=1;endArrow=ERoneToMany;startArrow=ERmandOne;rounded=0;" parent="1" source="e5fGJ2bErtbxZkrx5kii-118" target="k0vDTodkq2BZZLlNwc0m-74" edge="1">
          <mxGeometry width="100" height="100" relative="1" as="geometry">
            <mxPoint x="152" y="404" as="sourcePoint" />
            <mxPoint x="372" y="674" as="targetPoint" />
          </mxGeometry>
        </mxCell>
        <mxCell id="k0vDTodkq2BZZLlNwc0m-90" value="" style="edgeStyle=entityRelationEdgeStyle;fontSize=12;html=1;endArrow=ERoneToMany;startArrow=ERmandOne;rounded=0;" parent="1" source="k0vDTodkq2BZZLlNwc0m-52" target="k0vDTodkq2BZZLlNwc0m-71" edge="1">
          <mxGeometry width="100" height="100" relative="1" as="geometry">
            <mxPoint x="749" y="-680" as="sourcePoint" />
            <mxPoint x="969" y="-410" as="targetPoint" />
          </mxGeometry>
        </mxCell>
        <mxCell id="k0vDTodkq2BZZLlNwc0m-91" value="" style="edgeStyle=entityRelationEdgeStyle;fontSize=12;html=1;endArrow=ERzeroToMany;startArrow=ERmandOne;rounded=0;" parent="1" source="aOM_bBMGX3Nps75KqPNb-44" target="k0vDTodkq2BZZLlNwc0m-55" edge="1">
          <mxGeometry width="100" height="100" relative="1" as="geometry">
            <mxPoint x="33" y="-203" as="sourcePoint" />
            <mxPoint x="-355" y="-372" as="targetPoint" />
          </mxGeometry>
        </mxCell>
      </root>
    </mxGraphModel>
  </diagram>
</mxfile>
